<svg width="57" height="57" viewBox="0 0 57 57" fill="none" xmlns="http://www.w3.org/2000/svg">
<rect width="57" height="57" rx="4" fill="#FEAD06" fill-opacity="0.2"/>
<g clip-path="url(#clip0_38_24)">
<path d="M19.8281 14.4082C19.8281 12.0311 17.9069 10 15.4922 10C13.0767 10 11.1562 12.0316 11.1562 14.4082C11.1562 16.7992 13.1012 18.7441 15.4922 18.7441C17.8832 18.7441 19.8281 16.7992 19.8281 14.4082ZM15.4922 16.5762C14.2967 16.5762 13.3242 15.6037 13.3242 14.4082C13.3242 13.1938 14.317 12.168 15.4922 12.168C16.6674 12.168 17.6602 13.1938 17.6602 14.4082C17.6602 15.6037 16.6877 16.5762 15.4922 16.5762ZM20.9121 24.1641C20.9121 21.1755 18.4808 18.7441 15.4922 18.7441C12.4963 18.7441 10 21.1676 10 24.1641V29.584H20.9121V24.1641ZM18.7441 27.416H12.168V24.1641C12.168 22.7707 13.1196 21.549 14.4082 21.0979V25.248H16.5762V21.0984C17.838 21.5461 18.7441 22.7509 18.7441 24.1641V27.416ZM45.8438 31.752C45.8438 29.361 43.8988 27.416 41.5078 27.416C39.1168 27.416 37.1719 29.361 37.1719 31.752C37.1719 34.1429 39.1168 36.0879 41.5078 36.0879C43.8988 36.0879 45.8438 34.1429 45.8438 31.752ZM41.5078 33.9199C40.3123 33.9199 39.3398 32.9474 39.3398 31.752C39.3398 30.5565 40.3123 29.584 41.5078 29.584C42.7033 29.584 43.6758 30.5565 43.6758 31.752C43.6758 32.9474 42.7033 33.9199 41.5078 33.9199ZM36.0879 41.5078V47H47V41.5078C47 38.5119 44.5043 36.0879 41.5078 36.0879C38.5192 36.0879 36.0879 38.5192 36.0879 41.5078ZM38.2559 41.5078C38.2559 39.7147 39.7147 38.2559 41.5078 38.2559C43.3097 38.2559 44.832 39.7449 44.832 41.5078V44.832H38.2559V41.5078ZM40.7414 22.7625L42.5918 24.6129V21.9961C42.5918 17.812 39.188 14.4082 35.0039 14.4082H29.584V11.2988L20.0418 17.6602L29.584 24.0215V20.9121H36.2739C37.9614 20.9121 39.5479 21.5693 40.7414 22.7625ZM27.416 18.7441V19.9707L23.9504 17.6602L27.416 15.3496V16.5762H35.0039C37.0999 16.5762 38.9215 17.7719 39.8228 19.517C38.7242 19.0109 37.5197 18.7441 36.2739 18.7441H27.416ZM25.248 32.9785V36.0879H18.5581C16.8706 36.0879 15.2841 35.4307 14.0906 34.2375L12.2402 32.3871V35.0039C12.2402 39.188 15.6441 42.5918 19.8281 42.5918H25.248V45.7012L34.7902 39.3398L25.248 32.9785ZM19.8281 40.4238C17.7321 40.4238 15.9105 39.2281 15.0092 37.483C16.1079 37.9891 17.3124 38.2559 18.5581 38.2559H27.416V37.0293L30.8817 39.3398L27.416 41.6504V40.4238H19.8281Z" fill="#FEAD06"/>
</g>
<defs>
<clipPath id="clip0_38_24">
<rect width="37" height="37" fill="white" transform="translate(10 10)"/>
</clipPath>
</defs>
</svg>
