<svg width="57" height="57" viewBox="0 0 57 57" fill="none" xmlns="http://www.w3.org/2000/svg">
<rect width="57" height="57" rx="4" fill="#FEAD06" fill-opacity="0.2"/>
<g clip-path="url(#clip0_38_11)">
<path d="M33.606 46.6088C32.4992 46.5551 31.4061 46.3415 30.3606 45.9745C29.5926 45.7006 28.7937 45.5231 27.982 45.446C27.2062 45.4864 26.4371 45.6105 25.688 45.816C24.1234 46.1965 22.3368 46.63 20.6666 45.8794C18.9963 45.1288 18.14 43.5114 17.4 42.0843C17.0702 41.3804 16.6548 40.72 16.1631 40.118C15.5818 39.5587 14.9318 39.0755 14.2286 38.6803C12.8754 37.8451 11.3531 36.8937 10.7294 35.2551C10.1057 33.6165 10.5708 31.8828 11.0571 30.3711C11.3212 29.5948 11.4881 28.7888 11.554 27.9714C11.5248 27.1945 11.4006 26.4241 11.184 25.6774C10.8034 24.1128 10.37 22.3368 11.1206 20.656C11.9835 19.1747 13.3205 18.0276 14.9157 17.4C15.6201 17.0669 16.2806 16.6479 16.882 16.1525C17.4379 15.5722 17.9207 14.9261 18.3197 14.2285C19.1548 12.8225 20.1063 11.3003 21.7554 10.6765C23.4046 10.0528 25.1171 10.5708 26.6394 11.0571C27.407 11.3321 28.2061 11.5097 29.018 11.5857C29.7947 11.5472 30.5645 11.4195 31.312 11.2051C32.8766 10.8351 34.6631 10.4017 36.3334 11.1523C37.8132 12.0053 38.9636 13.3306 39.6 14.9157C39.9298 15.6195 40.3452 16.28 40.8368 16.882C41.4312 17.4442 42.0957 17.9274 42.8137 18.3197C44.1668 19.1548 45.6891 20.1063 46.3128 21.7448C46.9366 23.3834 46.4186 25.1171 45.964 26.6394C45.6901 27.4073 45.5125 28.2063 45.4354 29.018C45.4646 29.7949 45.5888 30.5653 45.8054 31.312C46.186 32.8765 46.6194 34.6525 45.8688 36.3334C45.1183 38.0037 43.5008 38.86 42.0737 39.6105C41.368 39.9429 40.7044 40.3582 40.0968 40.8474C39.5419 41.4453 39.0626 42.1093 38.6697 42.8243C37.8346 44.1774 36.8831 45.6997 35.2446 46.3234C34.7207 46.519 34.1651 46.6158 33.606 46.6088ZM27.8868 42.7714H28.056C29.1012 42.8479 30.1319 43.0612 31.1217 43.4057C32.1223 43.8536 33.2316 44.0006 34.3143 43.8285C35.1177 43.5325 35.752 42.4965 36.4286 41.4077C36.9439 40.4968 37.5726 39.655 38.2997 38.9023C39.0754 38.2466 39.9316 37.6924 40.8474 37.2531C41.9067 36.8577 42.821 36.1499 43.4691 35.2234C43.7334 34.1235 43.656 32.9692 43.2471 31.9145C42.9606 30.9491 42.8007 29.9506 42.7714 28.944C42.8479 27.8987 43.0612 26.868 43.4057 25.8783C43.8537 24.8777 44.0006 23.7684 43.8286 22.6857C43.522 21.8823 42.4966 21.248 41.4077 20.5714C40.4968 20.0561 39.655 19.4274 38.9023 18.7003C38.254 17.9233 37.7069 17.0673 37.2743 16.1525C36.8754 15.0952 36.1683 14.1819 35.2446 13.5308C34.1454 13.2672 32.9923 13.3409 31.9357 13.7423C30.9668 14.0464 29.9593 14.2101 28.944 14.2285C27.8905 14.1417 26.8528 13.9178 25.8571 13.5625C24.8605 13.1265 23.7584 12.9906 22.6857 13.1714C21.8823 13.478 21.248 14.5034 20.5714 15.5923C20.0546 16.4957 19.4259 17.3304 18.7003 18.0765C17.9245 18.7322 17.0684 19.2864 16.1526 19.7257C15.0952 20.1246 14.1819 20.8317 13.5308 21.7554C13.2672 22.8545 13.3409 24.0076 13.7423 25.0643C14.0405 26.0345 14.2042 27.0412 14.2286 28.056C14.1417 29.1095 13.9178 30.1472 13.5626 31.1428C13.1265 32.1394 12.9906 33.2416 13.1714 34.3143C13.478 35.1177 14.5034 35.752 15.5923 36.4285C16.5032 36.9438 17.345 37.5726 18.0977 38.2997C18.746 39.0766 19.293 39.9327 19.7257 40.8474C20.1246 41.9048 20.8317 42.8181 21.7554 43.4691C22.8557 43.7281 24.0084 43.6507 25.0643 43.2471C25.9832 42.9781 26.9306 42.8185 27.8868 42.7714Z" fill="#FEAD06"/>
<path d="M26.4914 33.5426C26.3213 33.5446 26.1524 33.513 25.9946 33.4495C25.8367 33.386 25.693 33.2918 25.5717 33.1726L21.766 29.4408C21.6424 29.3201 21.5439 29.1761 21.4759 29.0173C21.408 28.8584 21.372 28.6877 21.3701 28.5149C21.3681 28.3422 21.4002 28.1707 21.4645 28.0103C21.5288 27.85 21.6241 27.7038 21.7448 27.5803C21.8656 27.4567 22.0096 27.3582 22.1684 27.2902C22.3273 27.2223 22.498 27.1863 22.6708 27.1844C22.8435 27.1824 23.015 27.2145 23.1754 27.2788C23.3357 27.3431 23.4819 27.4384 23.6054 27.5591L26.502 30.3923L33.4051 23.8168C33.5286 23.6872 33.6772 23.584 33.8418 23.5135C34.0064 23.443 34.1837 23.4067 34.3627 23.4068C34.5418 23.4069 34.719 23.4434 34.8835 23.5141C35.0481 23.5848 35.1965 23.6881 35.3199 23.818C35.4432 23.9478 35.5389 24.1013 35.6011 24.2692C35.6633 24.4371 35.6907 24.616 35.6817 24.7948C35.6727 24.9736 35.6274 25.1488 35.5486 25.3096C35.4699 25.4704 35.3592 25.6135 35.2234 25.7303L27.4006 33.1303C27.2837 33.2555 27.1431 33.3564 26.9871 33.4271C26.8311 33.4979 26.6626 33.5371 26.4914 33.5426Z" fill="#FEAD06"/>
</g>
<defs>
<clipPath id="clip0_38_11">
<rect width="37" height="37" fill="white" transform="translate(10 10)"/>
</clipPath>
</defs>
</svg>
