<svg width="60" height="60" viewBox="0 0 60 60" fill="none" xmlns="http://www.w3.org/2000/svg">
<rect width="60" height="60" rx="4" fill="#FEAD06" fill-opacity="0.2"/>
<g clip-path="url(#clip0_71_60)">
<path d="M42.1753 21.9905C42.1741 22.3341 42.4553 22.6098 42.7981 22.6098C42.963 22.6098 43.1214 22.545 43.2385 22.4291C43.3556 22.3132 43.4217 22.1556 43.4217 21.991V20.4301V20.4299C43.4212 19.9825 43.2413 19.554 42.9222 19.2382C42.6031 18.9224 42.1707 18.745 41.7201 18.7445H41.7199H39.2816L38.7356 17.1499C38.7355 17.1499 38.7355 17.1499 38.7355 17.1499C38.6833 16.9974 38.5734 16.8714 38.4294 16.7982C38.2855 16.7251 38.1186 16.7102 37.964 16.7567L38.0072 16.9004L37.964 16.7568L24.1769 20.9042L24.1769 20.904L24.1692 20.9068C24.0193 20.9609 23.8957 21.07 23.8241 21.2121L23.9576 21.2794L23.8241 21.2121C23.7525 21.3543 23.7386 21.5183 23.7855 21.6704C23.8324 21.8224 23.9362 21.9504 24.0752 22.0284C24.2141 22.1064 24.3777 22.1287 24.5325 22.0908L24.5325 22.091L24.54 22.0887L37.7491 18.1141L38.9747 21.6946L38.9747 21.6946C39.028 21.8503 39.1415 21.9782 39.2896 22.0506C39.4377 22.123 39.6086 22.1341 39.7649 22.0817C39.9212 22.0292 40.0506 21.9173 40.1241 21.77C40.1976 21.6226 40.209 21.4522 40.1556 21.2965L39.7054 19.981H41.7209C41.973 19.981 42.1753 20.1835 42.1753 20.4291V21.9905ZM42.1753 21.9905L42.3253 21.991M42.1753 21.9905V21.991H42.3253M42.3253 21.991C42.3244 22.2498 42.5366 22.4598 42.7981 22.4598C42.9237 22.4598 43.0442 22.4104 43.133 22.3225C43.2218 22.2346 43.2717 22.1153 43.2717 21.991V20.4301C43.2712 20.023 43.1076 19.6327 42.8167 19.3448C42.5258 19.0569 42.1314 18.8949 41.7199 18.8945L42.3253 21.991Z" fill="#FEAD06" stroke="#FEAD06" stroke-width="0.3"/>
<path d="M34.2927 16.4843L34.2926 16.4843L17.1298 22.0832C17.0521 22.1113 16.9696 22.1239 16.887 22.1202L16.8938 21.9703L16.887 22.1202C16.8034 22.1164 16.7214 22.096 16.6459 22.0601C16.5704 22.0242 16.5029 21.9735 16.4474 21.911C16.3919 21.8485 16.3497 21.7755 16.3233 21.6963L16.4656 21.6489L16.3233 21.6963C16.2969 21.6171 16.2869 21.5335 16.294 21.4503C16.301 21.3672 16.3249 21.2863 16.3642 21.2126C16.4035 21.139 16.4574 21.074 16.5225 21.0216C16.5868 20.9698 16.6608 20.9313 16.7402 20.9083L18.7079 20.2661H14.8421C14.2891 20.2661 13.8563 20.4357 13.5622 20.7267C13.2683 21.0175 13.0974 21.445 13.0974 21.9911C13.0974 22.5371 13.2683 22.9646 13.5622 23.2554C13.8563 23.5464 14.2891 23.7161 14.8421 23.7161H43.7368C44.2008 23.7161 44.5964 23.8651 44.8765 24.1423C45.1568 24.4196 45.3079 24.8119 45.3079 25.2723V30.8973C45.3079 31.0619 45.2418 31.2195 45.1247 31.3354C45.0076 31.4513 44.8491 31.5161 44.6842 31.5161H39C38.8504 31.5161 38.7799 31.5482 38.744 31.5837C38.7085 31.6188 38.6763 31.6876 38.6763 31.8348V36.5223C38.6763 36.6695 38.7085 36.7383 38.744 36.7735C38.7799 36.809 38.8504 36.8411 39 36.8411H46.5789C46.7286 36.8411 46.7991 36.809 46.835 36.7735C46.8705 36.7383 46.9026 36.6695 46.9026 36.5223V30.8973C46.9026 30.7501 46.8705 30.6813 46.835 30.6462C46.7991 30.6107 46.7286 30.5786 46.5789 30.5786C46.414 30.5786 46.2556 30.5138 46.1385 30.3979C46.0214 30.282 45.9553 30.1244 45.9553 29.9598C45.9553 29.7952 46.0214 29.6376 46.1385 29.5217C46.2556 29.4059 46.414 29.3411 46.5789 29.3411C47.0429 29.3411 47.4385 29.4901 47.7186 29.7673C47.9989 30.0446 48.15 30.4369 48.15 30.8973V36.5223C48.15 36.9827 47.9989 37.375 47.7186 37.6523C47.4385 37.9295 47.0429 38.0786 46.5789 38.0786H39C38.536 38.0786 38.1404 37.9295 37.8603 37.6523C37.5801 37.375 37.4289 36.9827 37.4289 36.5223V31.8348C37.4289 31.3744 37.5801 30.9821 37.8603 30.7048C38.1404 30.4276 38.536 30.2786 39 30.2786H44.0605V25.2723C44.0605 25.1251 44.0284 25.0563 43.9929 25.0212C43.957 24.9857 43.8865 24.9536 43.7368 24.9536H14.8421C14.1656 24.9536 13.5753 24.774 13.0974 24.4572V42.6161C13.0974 43.1621 13.2683 43.5896 13.5622 43.8804C13.8563 44.1714 14.2891 44.3411 14.8421 44.3411H43.7368C43.8865 44.3411 43.957 44.309 43.9929 44.2735C44.0284 44.2383 44.0605 44.1695 44.0605 44.0223V39.3348C44.0605 39.1702 44.1266 39.0126 44.2438 38.8967C44.3608 38.7809 44.5193 38.7161 44.6842 38.7161C44.8491 38.7161 45.0076 38.7809 45.1247 38.8967C45.2418 39.0127 45.3079 39.1702 45.3079 39.3348V44.0223C45.3079 44.4827 45.1568 44.875 44.8765 45.1523C44.5964 45.4295 44.2008 45.5786 43.7368 45.5786H14.8421C13.9584 45.5786 13.2081 45.284 12.6782 44.7596C12.1482 44.2351 11.85 43.4919 11.85 42.6161V21.9911C11.85 21.1152 12.1482 20.372 12.6782 19.8475C13.2081 19.3231 13.9584 19.0286 14.8421 19.0286H22.4211C22.4448 19.0286 22.4654 19.0323 22.48 19.0357L33.902 15.3085L34.2927 16.4843ZM34.2927 16.4843C34.3704 16.4589 34.4423 16.4185 34.5044 16.3655C34.5665 16.3125 34.6175 16.2479 34.6544 16.1752C34.6914 16.1025 34.7136 16.0232 34.7196 15.9419C34.7257 15.8606 34.7155 15.779 34.6896 15.7017L34.5474 15.7492M34.2927 16.4843L34.5474 15.7492M34.5474 15.7492L34.6896 15.7017C34.6638 15.6243 34.6229 15.5529 34.5693 15.4914M34.5474 15.7492L34.5693 15.4914M34.5693 15.4914C34.5156 15.4299 34.4504 15.3795 34.3773 15.3431M34.5693 15.4914L34.3773 15.3431M34.3773 15.3431C34.3041 15.3067 34.2246 15.285 34.1431 15.279M34.3773 15.3431L34.1431 15.279M34.1431 15.279C34.0616 15.2731 33.9797 15.2831 33.9021 15.3085L34.1431 15.279Z" fill="#FEAD06" stroke="#FEAD06" stroke-width="0.3"/>
<path d="M42.316 35.2661C42.9206 35.2661 43.4134 34.7807 43.4134 34.1786C43.4134 33.5765 42.9206 33.0911 42.316 33.0911C41.7114 33.0911 41.2187 33.5765 41.2187 34.1786C41.2187 34.7807 41.7114 35.2661 42.316 35.2661Z" fill="#FEAD06" stroke="#FEAD06" stroke-width="0.3"/>
</g>
<defs>
<clipPath id="clip0_71_60">
<rect width="37.7143" height="31.7143" fill="white" transform="translate(11.1431 14.5714)"/>
</clipPath>
</defs>
</svg>
