<svg width="60" height="60" viewBox="0 0 60 60" fill="none" xmlns="http://www.w3.org/2000/svg">
<rect width="60" height="60" rx="4" fill="#FEAD06" fill-opacity="0.2"/>
<path d="M25.4369 32.2568H34.5926C34.751 32.2568 34.9028 32.1998 35.0148 32.0985C35.1268 31.9972 35.1897 31.8597 35.1897 31.7164C35.1897 31.5731 35.1268 31.4356 35.0148 31.3343C34.9028 31.2329 34.751 31.176 34.5926 31.176H25.4369C25.2785 31.176 25.1266 31.2329 25.0147 31.3343C24.9027 31.4356 24.8398 31.5731 24.8398 31.7164C24.8398 31.8597 24.9027 31.9972 25.0147 32.0985C25.1266 32.1998 25.2785 32.2568 25.4369 32.2568ZM25.4369 36.5798H33.3984C33.5567 36.5798 33.7086 36.5229 33.8206 36.4216C33.9326 36.3202 33.9955 36.1828 33.9955 36.0395C33.9955 35.8961 33.9326 35.7587 33.8206 35.6573C33.7086 35.556 33.5567 35.4991 33.3984 35.4991H25.4369C25.2785 35.4991 25.1266 35.556 25.0147 35.6573C24.9027 35.7587 24.8398 35.8961 24.8398 36.0395C24.8398 36.1828 24.9027 36.3202 25.0147 36.4216C25.1266 36.5229 25.2785 36.5798 25.4369 36.5798ZM25.4369 27.9337H34.5926C34.751 27.9337 34.9028 27.8768 35.0148 27.7754C35.1268 27.6741 35.1897 27.5366 35.1897 27.3933C35.1897 27.25 35.1268 27.1125 35.0148 27.0112C34.9028 26.9099 34.751 26.8529 34.5926 26.8529H25.4369C25.2785 26.8529 25.1266 26.9099 25.0147 27.0112C24.9027 27.1125 24.8398 27.25 24.8398 27.3933C24.8398 27.5366 24.9027 27.6741 25.0147 27.7754C25.1266 27.8768 25.2785 27.9337 25.4369 27.9337ZM27.6255 14.3628C27.7436 14.3628 27.859 14.3312 27.9572 14.2718C28.0554 14.2124 28.132 14.128 28.1772 14.0293C28.2224 13.9305 28.2342 13.8219 28.2111 13.717C28.1881 13.6122 28.1312 13.5159 28.0477 13.4404C27.9642 13.3648 27.8578 13.3133 27.742 13.2925C27.6262 13.2716 27.5061 13.2823 27.397 13.3232C27.2879 13.3641 27.1946 13.4334 27.129 13.5222C27.0634 13.6111 27.0284 13.7156 27.0284 13.8225C27.0284 13.9658 27.0913 14.1032 27.2033 14.2046C27.3153 14.3059 27.4671 14.3628 27.6255 14.3628ZM25.4369 23.6106H34.5926C34.751 23.6106 34.9028 23.5537 35.0148 23.4523C35.1268 23.351 35.1897 23.2136 35.1897 23.0702C35.1897 22.9269 35.1268 22.7895 35.0148 22.6881C34.9028 22.5868 34.751 22.5299 34.5926 22.5299H25.4369C25.2785 22.5299 25.1266 22.5868 25.0147 22.6881C24.9027 22.7895 24.8398 22.9269 24.8398 23.0702C24.8398 23.2136 24.9027 23.351 25.0147 23.4523C25.1266 23.5537 25.2785 23.6106 25.4369 23.6106ZM20.66 41.9837C21.0143 41.9837 21.3606 41.8886 21.6552 41.7105C21.9498 41.5323 22.1794 41.2792 22.315 40.9829C22.4506 40.6867 22.486 40.3607 22.4169 40.0463C22.3478 39.7318 22.1772 39.4429 21.9267 39.2162C21.6761 38.9895 21.3569 38.8351 21.0095 38.7725C20.662 38.71 20.3018 38.7421 19.9745 38.8648C19.6472 38.9875 19.3674 39.1953 19.1706 39.4619C18.9737 39.7285 18.8687 40.0419 18.8687 40.3625C18.8693 40.7923 19.0582 41.2043 19.394 41.5082C19.7298 41.8121 20.1851 41.9831 20.66 41.9837ZM20.66 39.8221C20.7781 39.8221 20.8935 39.8538 20.9917 39.9132C21.0899 39.9726 21.1665 40.057 21.2117 40.1557C21.2568 40.2545 21.2687 40.3631 21.2456 40.468C21.2226 40.5728 21.1657 40.6691 21.0822 40.7446C20.9987 40.8202 20.8923 40.8717 20.7765 40.8925C20.6607 40.9134 20.5406 40.9027 20.4315 40.8618C20.3224 40.8209 20.2291 40.7516 20.1635 40.6628C20.0979 40.5739 20.0629 40.4694 20.0629 40.3625C20.0631 40.2193 20.1261 40.0819 20.238 39.9806C20.3499 39.8793 20.5017 39.8223 20.66 39.8221ZM20.66 24.6914C21.0143 24.6914 21.3606 24.5963 21.6552 24.4182C21.9498 24.24 22.1794 23.9869 22.315 23.6906C22.4506 23.3944 22.486 23.0684 22.4169 22.754C22.3478 22.4395 22.1772 22.1506 21.9267 21.9239C21.6761 21.6972 21.3569 21.5428 21.0095 21.4802C20.662 21.4177 20.3018 21.4498 19.9745 21.5725C19.6472 21.6952 19.3674 21.903 19.1706 22.1696C18.9737 22.4362 18.8687 22.7496 18.8687 23.0702C18.8693 23.5 19.0582 23.912 19.394 24.2159C19.7298 24.5198 20.1851 24.6908 20.66 24.6914ZM20.66 22.5299C20.7781 22.5299 20.8935 22.5615 20.9917 22.6209C21.0899 22.6803 21.1665 22.7647 21.2117 22.8634C21.2568 22.9622 21.2687 23.0708 21.2456 23.1757C21.2226 23.2805 21.1657 23.3768 21.0822 23.4523C20.9987 23.5279 20.8923 23.5794 20.7765 23.6002C20.6607 23.6211 20.5406 23.6104 20.4315 23.5695C20.3224 23.5286 20.2291 23.4593 20.1635 23.3705C20.0979 23.2816 20.0629 23.1771 20.0629 23.0702C20.0631 22.927 20.1261 22.7896 20.238 22.6883C20.3499 22.587 20.5017 22.53 20.66 22.5299ZM47.9265 20.8258C47.8272 20.5181 47.6292 20.2439 47.3576 20.038C47.0861 19.832 46.7532 19.7036 46.401 19.6689C46.0488 19.6342 45.6931 19.6948 45.3789 19.843C45.0648 19.9912 44.8062 20.2204 44.636 20.5016L43.9856 21.5752L42.3933 24.2029V18.1347C42.3924 17.4185 42.0777 16.7318 41.5182 16.2253C40.9586 15.7188 40.1999 15.4338 39.4085 15.4328H33.8275C33.6249 15.2114 33.3708 15.0331 33.0833 14.9108C32.7958 14.7885 32.482 14.7252 32.1643 14.7253H31.4399C31.4514 14.4931 31.4376 14.2604 31.3985 14.0307C31.2408 13.1777 30.7357 12.4091 29.9828 11.8765C29.23 11.3439 28.2839 11.0859 27.3312 11.1534C26.3785 11.2208 25.4883 11.6089 24.8361 12.241C24.1839 12.8731 23.8171 13.7034 23.808 14.5682C23.808 14.6215 23.808 14.6755 23.8119 14.7289H23.0875C22.7701 14.7283 22.4565 14.7911 22.169 14.9128C21.8816 15.0345 21.6273 15.212 21.4243 15.4328H15.8425C15.0509 15.4336 14.292 15.7185 13.7323 16.225C13.1726 16.7316 12.8578 17.4184 12.8569 18.1347V45.298C12.8578 46.0144 13.1726 46.7012 13.7323 47.2077C14.292 47.7143 15.0509 47.9992 15.8425 48H39.4085C40.2001 47.9992 40.959 47.7143 41.5187 47.2077C42.0784 46.7012 42.3932 46.0144 42.3941 45.298V30.9505L47.7776 22.0615C47.8918 21.8748 47.9638 21.6694 47.9893 21.4572C48.0149 21.2451 47.9935 21.0304 47.9265 20.8258ZM39.4085 16.5136C39.8835 16.514 40.3389 16.6849 40.6747 16.9888C41.0106 17.2928 41.1994 17.7049 41.1998 18.1347V26.1756L38.7716 30.186V19.2155C38.7716 19.0722 38.7087 18.9347 38.5967 18.8334C38.4847 18.732 38.3328 18.6751 38.1745 18.6751H34.3291V16.6815C34.3291 16.6253 34.3291 16.5691 34.3203 16.5136H39.4085ZM22.1193 16.6815C22.1198 16.4493 22.2219 16.2267 22.4034 16.0626C22.5849 15.8985 22.8309 15.8062 23.0875 15.806H24.4998C24.5904 15.8059 24.6797 15.7871 24.7611 15.7512C24.8425 15.7152 24.9137 15.663 24.9696 15.5985C25.0254 15.5339 25.0643 15.4588 25.0833 15.3787C25.1023 15.2985 25.101 15.2155 25.0794 15.136C24.9654 14.7202 24.9778 14.2842 25.1155 13.8744C25.2531 13.4645 25.5108 13.096 25.8612 12.808C26.1317 12.584 26.4513 12.4142 26.7992 12.3096C27.1471 12.2051 27.5155 12.1682 27.8803 12.2013C28.2548 12.2353 28.6168 12.3417 28.9419 12.5133C29.267 12.6849 29.5476 12.9177 29.7646 13.196C29.9817 13.4743 30.1301 13.7915 30.1999 14.1262C30.2697 14.4609 30.2592 14.8052 30.1692 15.136C30.1476 15.2155 30.1463 15.2985 30.1653 15.3787C30.1844 15.4588 30.2232 15.5339 30.2791 15.5985C30.3349 15.663 30.4062 15.7152 30.4875 15.7512C30.5689 15.7871 30.6582 15.8059 30.7488 15.806H32.1612C32.2887 15.8055 32.415 15.8277 32.5331 15.8714C32.6511 15.9151 32.7584 15.9795 32.8488 16.0608C32.9393 16.1421 33.0111 16.2388 33.0602 16.3453C33.1093 16.4518 33.1346 16.5661 33.1349 16.6815V18.7594C33.1344 18.9916 33.0323 19.2142 32.8508 19.3783C32.6693 19.5424 32.4233 19.6346 32.1667 19.6348H23.0906C22.8341 19.6346 22.5881 19.5424 22.4066 19.3783C22.2251 19.2142 22.1229 18.9916 22.1225 18.7594L22.1193 16.6815ZM23.0875 20.7163H32.1636C32.5391 20.7162 32.9082 20.6276 33.2344 20.4592C33.5607 20.2907 33.8328 20.0484 34.0242 19.7559H37.5774V32.1581L34.8068 36.7398C34.7933 36.7631 34.7816 36.7871 34.7717 36.8118C34.7695 36.8163 34.7677 36.8209 34.7662 36.8255C34.757 36.8491 34.7496 36.8732 34.7439 36.8976L34.1539 39.8221H25.4369C25.2785 39.8221 25.1266 39.8791 25.0147 39.9804C24.9027 40.0818 24.8398 40.2192 24.8398 40.3625C24.8398 40.5059 24.9027 40.6433 25.0147 40.7446C25.1266 40.846 25.2785 40.9029 25.4369 40.9029H34.5926H34.6252H34.6523C34.8029 40.9031 34.948 40.8516 35.0584 40.7588L37.5774 38.6441V43.6769H17.6736V19.7559H21.2276C21.419 20.0481 21.6911 20.2903 22.0172 20.4586C22.3432 20.6268 22.7121 20.7154 23.0875 20.7156V20.7163ZM35.7661 37.8343L36.4078 38.152L35.5599 38.8639L35.7661 37.8343ZM41.1998 45.298C41.1994 45.7279 41.0106 46.14 40.6747 46.444C40.3389 46.7479 39.8835 46.9188 39.4085 46.9192H15.8425C15.3676 46.9186 14.9123 46.7476 14.5765 46.4437C14.2407 46.1398 14.0518 45.7278 14.0512 45.298V18.1347C14.0518 17.7049 14.2407 17.2929 14.5765 16.989C14.9123 16.6851 15.3676 16.5141 15.8425 16.5136H20.9378C20.9323 16.5691 20.9291 16.6253 20.9291 16.6815V18.6751H17.0765C16.9182 18.6751 16.7663 18.732 16.6543 18.8334C16.5423 18.9347 16.4794 19.0722 16.4794 19.2155V44.2173C16.4794 44.3606 16.5423 44.498 16.6543 44.5994C16.7663 44.7007 16.9182 44.7577 17.0765 44.7577H38.1745C38.3328 44.7577 38.4847 44.7007 38.5967 44.5994C38.7087 44.498 38.7716 44.3606 38.7716 44.2173V36.9329L41.1998 32.9225V45.298ZM41.2723 30.5542L37.1849 37.304L36.1371 36.7852L38.6944 32.5615C38.6978 32.557 38.7007 32.5522 38.7031 32.5471L42.3176 26.5777L42.3256 26.5654L44.7459 22.5659L45.7936 23.0883L41.2723 30.5542ZM46.7307 21.5399L46.3669 22.1408L45.3199 21.6213L45.6838 21.0211C45.7199 20.9565 45.77 20.8991 45.8312 20.8523C45.8923 20.8056 45.9632 20.7704 46.0397 20.7489C46.1161 20.7275 46.1966 20.7202 46.2762 20.7274C46.3559 20.7346 46.4331 20.7563 46.5033 20.7911C46.5735 20.8259 46.6353 20.8731 46.6849 20.9299C46.7346 20.9868 46.7711 21.052 46.7923 21.1219C46.8135 21.1917 46.819 21.2647 46.8084 21.3365C46.7978 21.4083 46.7714 21.4775 46.7307 21.5399ZM20.66 37.6606C21.0143 37.6606 21.3606 37.5655 21.6552 37.3874C21.9498 37.2093 22.1794 36.9561 22.315 36.6598C22.4506 36.3636 22.486 36.0377 22.4169 35.7232C22.3478 35.4087 22.1772 35.1199 21.9267 34.8931C21.6761 34.6664 21.3569 34.512 21.0095 34.4495C20.662 34.3869 20.3018 34.419 19.9745 34.5417C19.6472 34.6644 19.3674 34.8722 19.1706 35.1388C18.9737 35.4054 18.8687 35.7188 18.8687 36.0395C18.8693 36.4692 19.0582 36.8813 19.394 37.1852C19.7298 37.4891 20.1851 37.66 20.66 37.6606ZM20.66 35.4991C20.7781 35.4991 20.8935 35.5308 20.9917 35.5901C21.0899 35.6495 21.1665 35.7339 21.2117 35.8327C21.2568 35.9314 21.2687 36.0401 21.2456 36.1449C21.2226 36.2497 21.1657 36.346 21.0822 36.4216C20.9987 36.4971 20.8923 36.5486 20.7765 36.5695C20.6607 36.5903 20.5406 36.5796 20.4315 36.5387C20.3224 36.4978 20.2291 36.4285 20.1635 36.3397C20.0979 36.2508 20.0629 36.1463 20.0629 36.0395C20.0631 35.8962 20.1261 35.7589 20.238 35.6576C20.3499 35.5563 20.5017 35.4993 20.66 35.4991ZM20.66 33.3375C21.0143 33.3375 21.3606 33.2425 21.6552 33.0643C21.9498 32.8862 22.1794 32.633 22.315 32.3368C22.4506 32.0405 22.486 31.7146 22.4169 31.4001C22.3478 31.0856 22.1772 30.7968 21.9267 30.5701C21.6761 30.3433 21.3569 30.1889 21.0095 30.1264C20.662 30.0638 20.3018 30.0959 19.9745 30.2186C19.6472 30.3413 19.3674 30.5491 19.1706 30.8157C18.9737 31.0823 18.8687 31.3958 18.8687 31.7164C18.8693 32.1462 19.0582 32.5582 19.394 32.8621C19.7298 33.166 20.1851 33.337 20.66 33.3375ZM20.66 31.176C20.7781 31.176 20.8935 31.2077 20.9917 31.2671C21.0899 31.3265 21.1665 31.4108 21.2117 31.5096C21.2568 31.6083 21.2687 31.717 21.2456 31.8218C21.2226 31.9266 21.1657 32.0229 21.0822 32.0985C20.9987 32.1741 20.8923 32.2255 20.7765 32.2464C20.6607 32.2672 20.5406 32.2565 20.4315 32.2156C20.3224 32.1747 20.2291 32.1055 20.1635 32.0166C20.0979 31.9277 20.0629 31.8233 20.0629 31.7164C20.0631 31.5731 20.1261 31.4358 20.238 31.3345C20.3499 31.2332 20.5017 31.1762 20.66 31.176ZM20.66 29.0145C21.0143 29.0145 21.3606 28.9194 21.6552 28.7413C21.9498 28.5631 22.1794 28.3099 22.315 28.0137C22.4506 27.7175 22.486 27.3915 22.4169 27.077C22.3478 26.7626 22.1772 26.4737 21.9267 26.247C21.6761 26.0203 21.3569 25.8659 21.0095 25.8033C20.662 25.7408 20.3018 25.7729 19.9745 25.8956C19.6472 26.0183 19.3674 26.226 19.1706 26.4926C18.9737 26.7592 18.8687 27.0727 18.8687 27.3933C18.8693 27.8231 19.0582 28.2351 19.394 28.539C19.7298 28.8429 20.1851 29.0139 20.66 29.0145ZM20.66 26.8529C20.7781 26.8529 20.8935 26.8846 20.9917 26.944C21.0899 27.0034 21.1665 27.0878 21.2117 27.1865C21.2568 27.2853 21.2687 27.3939 21.2456 27.4987C21.2226 27.6036 21.1657 27.6998 21.0822 27.7754C20.9987 27.851 20.8923 27.9025 20.7765 27.9233C20.6607 27.9442 20.5406 27.9335 20.4315 27.8926C20.3224 27.8517 20.2291 27.7824 20.1635 27.6935C20.0979 27.6047 20.0629 27.5002 20.0629 27.3933C20.0631 27.2501 20.1261 27.1127 20.238 27.0114C20.3499 26.9101 20.5017 26.8531 20.66 26.8529Z" fill="#FEAD06"/>
</svg>
