<svg width="57" height="57" viewBox="0 0 57 57" fill="none" xmlns="http://www.w3.org/2000/svg">
<rect width="57" height="57" rx="4" fill="#FEAD06" fill-opacity="0.2"/>
<path d="M13.8078 15.0009C13.6826 15.0072 13.561 15.045 13.4541 15.1109C13.3472 15.1768 13.2584 15.2687 13.1958 15.3781L6.10085 27.7861C6.05147 27.872 6.0194 27.9669 6.00648 28.0654C5.99355 28.1639 6.00002 28.2639 6.02551 28.3599C6.05101 28.4559 6.09503 28.5459 6.15506 28.6247C6.21508 28.7036 6.28994 28.7698 6.37535 28.8195L10.9833 31.5063C11.1555 31.6061 11.3599 31.6331 11.5517 31.5813C11.7435 31.5296 11.9069 31.4033 12.0063 31.2302L13.7088 28.2507L14.9763 28.9899L16.3653 29.7985C16.3686 31.5685 17.0667 33.2655 18.3078 34.5204C18.1253 34.8657 18.0323 35.2518 18.0376 35.6429C18.0428 36.0339 18.1461 36.4173 18.3378 36.7576C18.7878 37.5466 19.6413 37.794 20.4933 37.7352C20.4678 38.1726 20.4273 38.6207 20.6583 39.0235C21.2553 40.0689 22.5573 40.4038 23.6223 39.8985C23.6523 40.2198 23.5728 40.5456 23.7423 40.8413C24.3723 41.9426 25.7973 42.3303 26.8893 41.6922L28.5063 40.7493L30.1083 41.6846C30.6383 41.9898 31.2669 42.0715 31.8567 41.9117C32.4464 41.752 32.9493 41.3639 33.2553 40.8323C33.4248 40.5366 33.3453 40.2107 33.3753 39.8894C34.4402 40.3948 35.7422 40.0599 36.3407 39.0144C36.5702 38.6116 36.5297 38.1636 36.5042 37.7261C37.3562 37.7864 38.2097 37.539 38.6597 36.7486C39.1127 35.9581 38.8997 35.0891 38.4197 34.3741C38.8082 34.1779 39.2117 33.9894 39.4427 33.5866C39.4437 33.5866 39.4447 33.5866 39.4457 33.5866C39.4772 33.5308 39.4952 33.4704 39.5207 33.4131C39.619 33.3496 39.7012 33.2638 39.7607 33.1627C40.3532 32.1368 40.6607 30.9677 40.6607 29.7804L41.2532 29.435L42.0212 28.9869L42.7877 28.5434L43.2917 28.2477L44.9912 31.2241C45.0405 31.3105 45.1062 31.3862 45.1847 31.4469C45.2632 31.5076 45.3529 31.5521 45.4485 31.5778C45.5442 31.6034 45.644 31.6098 45.7421 31.5965C45.8402 31.5832 45.9347 31.5505 46.0202 31.5002L50.6252 28.8195C50.7969 28.7197 50.9223 28.5556 50.974 28.3631C51.0258 28.1706 50.9996 27.9653 50.9012 27.7921L43.8077 15.3811C43.7387 15.2605 43.6379 15.1614 43.5164 15.0948C43.3949 15.0283 43.2574 14.9968 43.1192 15.0039C43.0002 15.0086 42.884 15.0417 42.7802 15.1005L38.1752 17.7888C38.004 17.889 37.8793 18.0534 37.8281 18.2458C37.777 18.4383 37.8036 18.6433 37.9022 18.8161L38.1092 19.1812L37.6022 19.4769L36.8357 19.9219L36.0677 20.3699L35.4557 20.726C34.2103 20.002 32.7654 19.7025 31.3368 19.8721C30.4512 19.9805 29.5969 20.2689 28.8258 20.7199C28.8248 20.7199 28.8238 20.7199 28.8228 20.7199L28.5078 20.9025L28.1568 20.7109C27.376 20.2817 26.5205 20.0077 25.6368 19.9038C24.2133 19.7379 22.7853 20.0396 21.5508 20.738L20.1618 19.931L18.8868 19.1872L19.0983 18.8191C19.1971 18.6459 19.2237 18.4402 19.1722 18.2471C19.1208 18.0539 18.9955 17.8892 18.8238 17.7888L14.2188 15.1005C14.0941 15.0283 13.9514 14.9938 13.8078 15.0009ZM14.1183 16.7901L17.4288 18.7196L11.0838 29.8182L7.77335 27.8887L14.1183 16.7901ZM42.8822 16.7901L49.2272 27.8917L45.9167 29.8182L39.5717 18.7196L42.8822 16.7901ZM38.8562 20.4861L42.5417 26.9398L42.0377 27.234L41.2712 27.682C41.2702 27.682 41.2692 27.682 41.2682 27.682L40.5002 28.1346L40.4657 28.1542C40.3213 27.5779 40.1024 27.023 39.8147 26.5038C39.8001 26.4663 39.7826 26.4299 39.7622 26.3952V26.3922L37.9427 23.2091V23.2061C37.624 22.6518 37.2285 22.1459 36.7682 21.7035L36.8207 21.6734L37.5887 21.2268L38.3552 20.7788L38.8562 20.4876V20.4861ZM18.1413 20.4967L19.4088 21.2329L20.2263 21.7096C19.7678 22.1498 19.3743 22.6537 19.0578 23.2061L17.2383 26.3922C16.9297 26.9501 16.7019 27.5496 16.5618 28.1723L15.7293 27.685L14.4543 26.9428L18.1413 20.4967ZM32.5263 21.3354C33.8463 21.4305 35.1122 22.0445 36.0272 23.0944C36.2537 23.3554 36.4622 23.6436 36.6422 23.9573V23.9604L38.4617 27.1435V27.1465C38.4637 27.1495 38.4657 27.1525 38.4677 27.1555C39.094 28.2528 39.304 29.5412 39.0587 30.7821C38.9227 30.6409 38.7689 30.5182 38.6012 30.4171L32.4648 26.8372C32.5019 26.3765 32.4116 25.9144 32.2038 25.5021C32.1906 25.4616 32.174 25.4222 32.1543 25.3845C32.1513 25.3784 32.1483 25.3723 32.1453 25.3663C32.1423 25.3603 32.1393 25.3542 32.1363 25.3482V25.3452C31.9663 25.0482 31.7364 24.7902 31.4613 24.5879H31.4598C31.0474 24.2911 30.5584 24.1207 30.0518 24.0974C29.5453 24.0742 29.0428 24.1989 28.6053 24.4567C28.5951 24.462 28.5851 24.4675 28.5753 24.4733L28.5348 24.5004L25.1838 26.451C25.1455 26.4744 25.1093 26.5011 25.0758 26.531L24.9933 26.5762C24.2388 27.0167 23.3448 26.7226 22.6353 26.0784L24.6333 24.9093L26.7108 23.6994C26.7173 23.6954 26.7238 23.6914 26.7303 23.6873L26.7363 23.6843L28.9113 22.4171C28.9108 22.4171 28.9118 22.4171 28.9113 22.4171L29.5788 22.0249H29.5818C30.4719 21.5024 31.4981 21.2621 32.5263 21.3354ZM24.4638 21.3626C25.3151 21.3155 26.1654 21.4722 26.9448 21.8197L25.9848 22.3779L23.8803 23.6043C23.8793 23.6043 23.8783 23.6043 23.8773 23.6043L21.0003 25.2939C20.8295 25.3942 20.705 25.5582 20.6539 25.7503C20.6028 25.9425 20.6291 26.1471 20.7273 26.3198C21.7683 28.1421 24.0078 28.8994 25.7433 27.8857L29.1033 25.926C29.1134 25.9197 29.1234 25.9132 29.1333 25.9064L29.3088 25.7933L29.3583 25.7631C29.8938 25.4523 30.4833 25.6002 30.7833 26.0407C30.6283 26.0617 30.4838 26.1309 30.3698 26.2387C30.2559 26.3464 30.1783 26.4872 30.1479 26.6415C30.1175 26.7957 30.1358 26.9557 30.2002 27.099C30.2647 27.2423 30.372 27.3617 30.5073 27.4406L31.1823 27.8329C31.2287 27.8678 31.2791 27.8971 31.3323 27.9204L37.8482 31.722C38.2457 31.9528 38.3732 32.434 38.1452 32.8353C38.0948 32.929 38.0259 33.0115 37.9428 33.0775C37.8597 33.1436 37.764 33.1919 37.6617 33.2196C37.5594 33.2473 37.4525 33.2537 37.3476 33.2385C37.2428 33.2232 37.1421 33.1867 37.0517 33.131L29.7573 28.8783L28.9893 28.4303C28.817 28.3298 28.6121 28.3024 28.4197 28.3538C28.2273 28.4053 28.0631 28.5316 27.9633 28.7048C27.8634 28.8781 27.8361 29.0841 27.8873 29.2776C27.9385 29.4711 28.064 29.6363 28.2363 29.7367L29.0043 30.1832L36.2987 34.4359L37.0667 34.884C37.1601 34.9363 37.242 35.007 37.3076 35.0919C37.3731 35.1768 37.421 35.2742 37.4483 35.3781C37.4756 35.482 37.4818 35.5904 37.4665 35.6968C37.4512 35.8032 37.4147 35.9054 37.3592 35.9973C37.309 36.091 37.2403 36.1734 37.1572 36.2394C37.0742 36.3055 36.9786 36.3537 36.8763 36.3813C36.7741 36.4088 36.6673 36.4151 36.5626 36.3996C36.4578 36.3842 36.3573 36.3474 36.2672 36.2915L35.4992 35.8434L28.2048 31.5892L27.4368 31.1412C27.3516 31.0914 27.2575 31.0591 27.1598 31.0459C27.0622 31.0328 26.963 31.0391 26.8678 31.0645C26.7726 31.09 26.6833 31.134 26.605 31.1941C26.5267 31.2543 26.461 31.3293 26.4115 31.415C26.3621 31.5007 26.3299 31.5953 26.3168 31.6935C26.3038 31.7917 26.31 31.8915 26.3353 31.9872C26.3606 32.083 26.4044 32.1728 26.4642 32.2515C26.524 32.3303 26.5986 32.3964 26.6838 32.4461L27.4518 32.8941L27.8973 33.1536L34.7462 37.1498C34.8395 37.2019 34.9213 37.2723 34.9869 37.3569C35.0525 37.4414 35.1005 37.5384 35.128 37.642C35.1556 37.7456 35.1622 37.8537 35.1474 37.9599C35.1325 38.0661 35.0966 38.1682 35.0417 38.2601C35.0407 38.2601 35.0397 38.2601 35.0387 38.2601C34.9886 38.354 34.92 38.4365 34.837 38.5027C34.7541 38.5689 34.6586 38.6174 34.5564 38.6452C34.4542 38.673 34.3474 38.6796 34.2426 38.6645C34.1377 38.6494 34.0371 38.6129 33.9468 38.5573L32.4108 37.6612L25.8858 33.8551L24.3483 32.959C24.1761 32.8606 23.9722 32.8346 23.7811 32.8868C23.59 32.939 23.4271 33.0651 23.3281 33.2376C23.2291 33.4101 23.2019 33.615 23.2525 33.8075C23.3031 34.0001 23.4274 34.1647 23.5983 34.2654L31.6578 38.9677C32.0553 39.1985 32.1828 39.6767 31.9548 40.078C31.9046 40.172 31.8359 40.2547 31.7529 40.3211C31.6698 40.3874 31.5742 40.436 31.4718 40.4638C31.3694 40.4917 31.2624 40.4981 31.1574 40.4829C31.0524 40.4677 30.9516 40.431 30.8613 40.3752L23.2653 35.9475C23.2623 35.9475 23.2593 35.9475 23.2563 35.9475L22.7988 35.679C22.7948 35.6789 22.7908 35.6789 22.7868 35.679L20.4138 34.2941C20.2563 34.2021 20.1258 34.0829 19.9803 33.9788C19.8803 33.8214 19.7259 33.7069 19.5468 33.6575C18.6589 32.8544 18.0734 31.768 17.8893 30.5813C17.7051 29.3947 17.9335 28.1805 18.5358 27.1435L20.3583 23.9588C20.7744 23.2172 21.3676 22.5915 22.0843 22.1382C22.8011 21.6849 23.6189 21.4183 24.4638 21.3626ZM10.4043 26.2851C10.2451 26.2812 10.0879 26.3208 9.94902 26.3997C9.81018 26.4785 9.69492 26.5937 9.61534 26.7331C9.49854 26.9389 9.46721 27.183 9.52823 27.4121C9.58924 27.6412 9.73762 27.8364 9.94084 27.9551C10.1442 28.0739 10.3858 28.1064 10.6128 28.0453C10.8397 27.9842 11.0334 27.8345 11.1513 27.6292C11.2681 27.4235 11.2995 27.1793 11.2384 26.9502C11.1774 26.7212 11.029 26.5259 10.8258 26.4073C10.6975 26.332 10.5526 26.2905 10.4043 26.2866V26.2851ZM46.5962 26.2851C46.4469 26.2885 46.3009 26.33 46.1717 26.4058C45.9686 26.5249 45.8206 26.7207 45.7601 26.9501C45.6996 27.1794 45.7317 27.4237 45.8492 27.6292C45.9669 27.8348 46.1604 27.9847 46.3874 28.0461C46.6144 28.1075 46.8562 28.0753 47.0597 27.9566C47.2629 27.8379 47.4113 27.6427 47.4723 27.4136C47.5333 27.1845 47.502 26.9404 47.3852 26.7346C47.3058 26.5949 47.1906 26.4794 47.0518 26.4003C46.9129 26.3212 46.7556 26.2814 46.5962 26.2851ZM19.5378 35.5115C19.5828 35.5372 19.6173 35.5734 19.6608 35.599L20.8068 36.2658C20.7811 36.2779 20.756 36.2915 20.7318 36.3065C20.6414 36.3628 20.5405 36.3999 20.4353 36.4154C20.3301 36.4309 20.2229 36.4245 20.1203 36.3966C20.0176 36.3688 19.9217 36.32 19.8386 36.2534C19.7554 36.1868 19.6868 36.1037 19.6368 36.0093C19.5516 35.8584 19.5169 35.6838 19.5378 35.5115ZM22.3038 37.1317L22.5033 37.2494H22.5063L23.9118 38.0686L23.0478 38.5724C22.9574 38.6278 22.8568 38.6641 22.752 38.6791C22.6472 38.6941 22.5405 38.6875 22.4383 38.6597C22.3362 38.6319 22.2407 38.5834 22.1578 38.5173C22.0748 38.4513 22.0061 38.3689 21.9558 38.2752C21.9007 38.1832 21.8646 38.081 21.8496 37.9746C21.8347 37.8683 21.8412 37.76 21.8687 37.6562C21.8963 37.5524 21.9444 37.4553 22.0101 37.3706C22.0759 37.286 22.1579 37.2155 22.2513 37.1634C22.2692 37.1536 22.2867 37.143 22.3038 37.1317ZM25.4043 38.9375L27.0093 39.8773L26.1363 40.3872C26.0458 40.4428 25.9451 40.4793 25.8401 40.4945C25.7352 40.5096 25.6283 40.503 25.526 40.4752C25.4236 40.4474 25.328 40.3989 25.2449 40.3327C25.1618 40.2665 25.0931 40.1839 25.0428 40.09C24.9874 39.9983 24.9511 39.8963 24.9359 39.79C24.9208 39.6838 24.9271 39.5756 24.9546 39.4719C24.982 39.3682 25.03 39.2711 25.0957 39.1866C25.1614 39.102 25.2434 39.0316 25.3368 38.9797C25.36 38.9669 25.3825 38.9528 25.4043 38.9375Z" fill="#FEAD06"/>
</svg>
