<svg width="60" height="60" viewBox="0 0 60 60" fill="none" xmlns="http://www.w3.org/2000/svg">
<rect width="60" height="60" rx="4" fill="#FEAD06" fill-opacity="0.2"/>
<path d="M27.9966 11.1546V11.1639C27.8896 11.1457 27.7804 11.1457 27.6735 11.1639C27.3938 11.2141 27.3032 11.3185 27.1942 11.4071C27.0847 11.4985 26.9812 11.5969 26.8843 11.7019C26.6808 11.9173 26.4668 12.1751 26.2554 12.4288C26.0453 12.6839 25.8352 12.9364 25.671 13.1188C25.6175 13.1781 25.5619 13.2354 25.5043 13.2906C25.4425 13.2906 25.3703 13.2774 25.2705 13.2655C25.0302 13.2325 24.7125 13.1756 24.3881 13.1188C24.0651 13.062 23.7381 13.0038 23.4453 12.9721C23.3046 12.9551 23.1629 12.9471 23.0212 12.9483C22.882 12.9483 22.7441 12.9338 22.4985 13.0778C22.253 13.2219 22.2031 13.3488 22.1309 13.4704C22.06 13.592 22.0009 13.7149 21.9418 13.8524C21.8236 14.1247 21.7054 14.4419 21.5925 14.7552C21.4796 15.0684 21.3693 15.3777 21.2774 15.6077C21.238 15.7042 21.2051 15.7756 21.1776 15.8324C21.1011 15.8546 21.0241 15.8745 20.9464 15.8919C20.7101 15.9448 20.3923 16.0016 20.0693 16.0598C19.7463 16.1179 19.4167 16.1787 19.1304 16.2501C18.9886 16.2858 18.856 16.3228 18.726 16.3744C18.5947 16.4259 18.4607 16.4537 18.2795 16.6731C18.0983 16.8925 18.0957 17.03 18.0694 17.1688C18.0432 17.3075 18.0274 17.4437 18.0169 17.5917C17.9985 17.8905 17.9985 18.2288 17.9972 18.5632C17.9972 18.8977 17.9972 19.2268 17.9867 19.4753C17.9828 19.581 17.9736 19.6564 17.967 19.7198C17.9171 19.7568 17.8567 19.8031 17.77 19.8599C17.5639 19.9921 17.2816 20.156 16.9966 20.3239C16.713 20.4917 16.4267 20.6636 16.1825 20.8301C16.0641 20.9086 15.951 20.9947 15.8437 21.0878C15.7386 21.1817 15.6231 21.2544 15.5285 21.5214C15.4327 21.7884 15.4734 21.9193 15.4944 22.0594C15.5154 22.1981 15.5509 22.3316 15.5916 22.4744C15.673 22.7612 15.7859 23.0798 15.8975 23.393C16.0078 23.7076 16.1181 24.0169 16.1917 24.2522C16.2232 24.354 16.2442 24.4293 16.2586 24.4901C16.2245 24.543 16.1799 24.6104 16.1142 24.695C15.9658 24.8906 15.7597 25.1404 15.5482 25.3969C15.3381 25.6533 15.1267 25.915 14.9534 26.1556C14.8687 26.2702 14.7915 26.3903 14.7223 26.5151C14.6553 26.6393 14.5713 26.7477 14.5713 27.0306C14.5713 27.3135 14.6553 27.4232 14.7223 27.5474C14.7893 27.6717 14.8667 27.7853 14.9534 27.9056C15.1267 28.1475 15.3381 28.4079 15.5482 28.6656C15.7583 28.9221 15.9658 29.1719 16.1155 29.3662C16.1785 29.4521 16.2245 29.5182 16.2586 29.5711C16.2396 29.6511 16.2177 29.7305 16.193 29.809C16.1181 30.0443 16.0091 30.3549 15.8975 30.6681C15.7859 30.9814 15.6743 31.2986 15.5916 31.5855C15.5504 31.7225 15.518 31.862 15.4944 32.0031C15.4734 32.1433 15.4327 32.2728 15.5272 32.5398C15.6231 32.8068 15.7373 32.8808 15.8424 32.9733C15.9474 33.0672 16.059 33.1491 16.1812 33.2324C16.4267 33.3989 16.713 33.5708 16.9966 33.7386C17.2816 33.9065 17.5639 34.0691 17.7687 34.2013C17.8567 34.2555 17.9171 34.3017 17.9657 34.3401C17.9736 34.4035 17.9828 34.4815 17.9867 34.5872C17.9972 34.8357 17.9972 35.1649 17.9972 35.4993C17.9972 35.8324 17.9972 36.1681 18.0182 36.4668C18.0274 36.6162 18.0418 36.7536 18.0694 36.8924C18.0957 37.0312 18.0983 37.17 18.2795 37.3881C18.4607 37.6075 18.5947 37.6366 18.726 37.6881C18.8573 37.7397 18.9886 37.7793 19.1304 37.815C19.4167 37.8864 19.7476 37.9472 20.0693 38.0054C20.3923 38.0635 20.7088 38.1204 20.9464 38.1732C21.0462 38.1957 21.1185 38.2155 21.1776 38.2327C21.2051 38.2896 21.238 38.3609 21.2774 38.4574C21.3378 38.6041 21.41 38.8117 21.4809 39.0046L18.013 44.95C17.9418 45.0716 17.9082 45.2117 17.9165 45.3526C17.9248 45.4934 17.9747 45.6285 18.0597 45.7408C18.1446 45.853 18.2609 45.9371 18.3936 45.9825C18.5263 46.0279 18.6695 46.0324 18.8048 45.9956L21.9772 45.139L22.8295 48.3351C22.8662 48.4699 22.9417 48.5908 23.0465 48.6827C23.1512 48.7745 23.2806 48.8331 23.4183 48.8512C23.5561 48.8692 23.696 48.8459 23.8207 48.7842C23.9453 48.7225 24.0491 48.6251 24.1189 48.5043L27.3912 42.8021C27.4608 42.8418 27.5435 42.8775 27.6735 42.8999C27.9545 42.9502 28.0753 42.8841 28.208 42.8378C28.3393 42.7915 28.4653 42.736 28.5966 42.6699C28.8619 42.5378 29.1508 42.3712 29.437 42.206C29.7207 42.0394 30.0004 41.8742 30.2157 41.7592C30.3063 41.7117 30.372 41.6786 30.4284 41.6535C30.4849 41.6786 30.5519 41.7117 30.6412 41.7592C30.8565 41.8742 31.1362 42.0394 31.4211 42.206C31.7061 42.3712 31.995 42.5391 32.2602 42.6699C32.3915 42.736 32.5163 42.7915 32.6489 42.8378C32.7815 42.8841 32.9023 42.9502 33.1833 42.8999C33.2816 42.8843 33.3763 42.8512 33.463 42.8021L36.7327 48.5043C36.8025 48.6251 36.9063 48.7225 37.0309 48.7842C37.1556 48.8459 37.2956 48.8692 37.4333 48.8512C37.571 48.8331 37.7004 48.7745 37.8052 48.6827C37.9099 48.5908 37.9854 48.4699 38.0222 48.3351L38.8744 45.1417L42.0442 45.9982C42.1793 46.0344 42.3221 46.0293 42.4543 45.9836C42.5866 45.9379 42.7023 45.8537 42.7869 45.7416C42.8715 45.6296 42.9211 45.4948 42.9293 45.3543C42.9376 45.2138 42.9042 45.074 42.8334 44.9527L39.3734 39.0152C39.4456 38.8169 39.5178 38.6068 39.5795 38.4574C39.6189 38.3609 39.6517 38.2896 39.6793 38.2327C39.7384 38.2155 39.8106 38.1957 39.9104 38.1732C40.1468 38.1204 40.4645 38.0648 40.7876 38.0054C41.1106 37.9472 41.4402 37.8864 41.7264 37.815C41.8639 37.7818 41.999 37.7394 42.1309 37.6881C42.2622 37.6353 42.3961 37.6075 42.5773 37.3881C42.7586 37.1687 42.7612 37.0312 42.7874 36.8924C42.8137 36.7536 42.8295 36.6148 42.84 36.4668C42.8584 36.1681 42.8584 35.8324 42.8597 35.4993C42.8597 35.1649 42.8597 34.8357 42.8702 34.5872C42.8741 34.4815 42.8833 34.4022 42.8899 34.3401C42.9398 34.303 43.0002 34.2568 43.0868 34.1999C43.293 34.0678 43.5727 33.9065 43.8576 33.7373C44.1413 33.5708 44.4288 33.3989 44.6718 33.2324C44.7952 33.1491 44.9068 33.0672 45.0105 32.9733C45.1156 32.8808 45.2311 32.8068 45.3257 32.5398C45.4216 32.2728 45.3808 32.1433 45.3598 32.0031C45.3362 31.862 45.3038 31.7225 45.2627 31.5855C45.1701 31.2766 45.0681 30.9707 44.9567 30.6681C44.8538 30.3835 44.7558 30.097 44.6626 29.809C44.6379 29.7305 44.616 29.6511 44.5969 29.5711C44.6297 29.5182 44.6757 29.4521 44.7387 29.3675C44.8884 29.1719 45.0959 28.9221 45.306 28.6656C45.5161 28.4092 45.7301 28.1475 45.9035 27.9056C45.9901 27.7867 46.0676 27.6717 46.1346 27.5474C46.2015 27.4232 46.2856 27.3148 46.2856 27.0319C46.2856 26.7477 46.2015 26.638 46.1346 26.5151C46.0654 26.3903 45.9882 26.2702 45.9035 26.1556C45.7301 25.915 45.5161 25.6533 45.306 25.3969C45.0959 25.1404 44.8884 24.888 44.7387 24.6924C44.6887 24.6266 44.641 24.5592 44.5956 24.4901C44.61 24.428 44.6311 24.354 44.6613 24.2522C44.7361 24.0169 44.8451 23.7076 44.9567 23.393C45.0683 23.0798 45.1799 22.7612 45.2627 22.4744C45.3034 22.3316 45.3388 22.1981 45.3598 22.0594C45.3808 21.9193 45.4216 21.7884 45.327 21.5214C45.2311 21.2557 45.1169 21.1817 45.0119 21.0878C44.9047 20.9945 44.7915 20.9084 44.6731 20.8301C44.4066 20.6529 44.1346 20.484 43.8576 20.3239C43.5727 20.156 43.293 19.9921 43.0881 19.8599C43.0208 19.8157 42.9551 19.769 42.8912 19.7198C42.8833 19.6564 42.8741 19.5797 42.8702 19.4753C42.8597 19.2268 42.8597 18.8977 42.8597 18.5632C42.8597 18.2288 42.8597 17.8905 42.8387 17.5931C42.8306 17.4511 42.8135 17.3098 42.7874 17.1701C42.7612 17.0313 42.7586 16.8925 42.5773 16.6731C42.3961 16.4537 42.2622 16.4259 42.1309 16.3744C41.9996 16.3215 41.8683 16.2858 41.7264 16.2501C41.4155 16.177 41.1024 16.1135 40.7876 16.0598C40.4645 16.0016 40.1481 15.9435 39.9104 15.8919C39.8328 15.8745 39.7557 15.8546 39.6793 15.8324C39.6435 15.7587 39.6102 15.6838 39.5795 15.6077C39.4876 15.3777 39.3773 15.0684 39.2644 14.7552C39.1572 14.4507 39.0407 14.1496 38.9151 13.8524C38.8599 13.7206 38.7963 13.5926 38.7247 13.4691C38.6538 13.3501 38.6026 13.2206 38.3583 13.0778C38.1128 12.9324 37.9749 12.9509 37.8357 12.9483C37.6952 12.9483 37.5586 12.9615 37.4116 12.9721C37.1187 13.0038 36.7918 13.062 36.4687 13.1175C36.1444 13.1756 35.8266 13.2338 35.5863 13.2655C35.4865 13.2787 35.4143 13.2867 35.3526 13.292C35.295 13.2362 35.2394 13.1785 35.1858 13.1188C34.9872 12.8922 34.7924 12.6622 34.6015 12.4288C34.3901 12.1751 34.1734 11.9133 33.9712 11.6992C33.8749 11.5951 33.7718 11.4975 33.6626 11.4071C33.5536 11.3185 33.4643 11.2115 33.1833 11.1612C32.9023 11.111 32.7815 11.1745 32.6489 11.2207C32.5176 11.267 32.3915 11.3265 32.2602 11.3926C31.995 11.5247 31.7061 11.69 31.4198 11.8552C31.1362 12.0231 30.8565 12.1883 30.6412 12.3033C30.5519 12.3509 30.4849 12.3786 30.4284 12.4037C30.372 12.3773 30.3063 12.3509 30.2157 12.3033C30.0004 12.1883 29.7207 12.023 29.4357 11.8565C29.1609 11.6927 28.8811 11.5375 28.5966 11.3912C28.4708 11.3261 28.341 11.2691 28.208 11.2207C28.1423 11.1983 28.078 11.1705 27.9966 11.1546ZM27.9151 12.5478C27.9506 12.5637 27.9716 12.5689 28.0149 12.5901C28.2211 12.6932 28.4955 12.8492 28.7765 13.0131C29.0575 13.177 29.3438 13.3462 29.5999 13.4823C29.7285 13.551 29.8493 13.6145 29.9688 13.6634C30.091 13.7136 30.1881 13.7718 30.4284 13.7718C30.6687 13.7718 30.7633 13.7136 30.8854 13.6634C31.0107 13.6089 31.1334 13.5485 31.2531 13.4823C31.5104 13.3462 31.7993 13.177 32.0803 13.0131C32.3613 12.8492 32.6358 12.6919 32.8419 12.5901C32.8853 12.5676 32.9063 12.5637 32.9417 12.5478C32.9706 12.5756 32.9877 12.5875 33.0205 12.6231C33.1807 12.791 33.3882 13.0382 33.5957 13.2893C33.8058 13.5405 34.0159 13.7995 34.2115 14.0163C34.3087 14.126 34.3993 14.2225 34.4965 14.3111C34.5923 14.4009 34.6632 14.4882 34.8878 14.5728C35.1136 14.656 35.2239 14.6349 35.3552 14.6296C35.4865 14.6296 35.6192 14.6098 35.7623 14.59C36.0512 14.5503 36.3781 14.4908 36.6959 14.4353C37.015 14.3785 37.3275 14.3256 37.556 14.3005C37.6046 14.3005 37.6243 14.3018 37.6637 14.2873L37.7123 14.3917C37.8042 14.6058 37.9184 14.9085 38.03 15.2178C38.1417 15.5271 38.2533 15.8443 38.3636 16.1166C38.4187 16.2514 38.4726 16.3757 38.533 16.4933C38.5934 16.611 38.6301 16.7167 38.8127 16.8727C38.9952 17.0286 39.1055 17.0458 39.2302 17.0868C39.355 17.1265 39.4837 17.1608 39.6242 17.1926C39.9091 17.256 40.2348 17.3115 40.5538 17.371C40.8729 17.4291 41.1841 17.486 41.4074 17.5415C41.4573 17.5547 41.477 17.564 41.515 17.5745C41.5203 17.6155 41.5242 17.638 41.5282 17.6909C41.5439 17.9248 41.5452 18.246 41.5466 18.5765C41.5466 18.9056 41.5466 19.2426 41.5597 19.5361C41.5649 19.6841 41.5728 19.8189 41.5899 19.9498C41.607 20.0806 41.607 20.193 41.7264 20.4018C41.8446 20.6094 41.9405 20.6662 42.0442 20.7468C42.1466 20.8288 42.257 20.9054 42.3804 20.9847C42.6246 21.1434 42.9135 21.3099 43.1932 21.4751C43.4729 21.6404 43.7447 21.8056 43.9364 21.9351C43.9797 21.9642 43.9955 21.9801 44.0283 22.0052C44.0191 22.0448 44.0152 22.0686 44.0008 22.1202C43.9364 22.3449 43.8301 22.6502 43.7211 22.9595C43.6108 23.2688 43.4978 23.5834 43.4112 23.8636C43.3682 23.9953 43.3314 24.1289 43.3009 24.2641C43.2733 24.3936 43.2352 24.4981 43.2746 24.7333C43.3153 24.9686 43.3875 25.0545 43.4571 25.1669C43.5267 25.2792 43.6068 25.3916 43.6961 25.5079C43.8721 25.7405 44.0848 25.997 44.2936 26.2481C44.5011 26.5019 44.7033 26.7517 44.8398 26.9407C44.8714 26.9843 44.8832 27.0068 44.9055 27.0412C44.8832 27.0769 44.8714 27.098 44.8398 27.1416C44.7033 27.3306 44.5011 27.5778 44.2936 27.8316C44.0848 28.084 43.8734 28.3418 43.6961 28.5744C43.6068 28.6908 43.5254 28.7991 43.4571 28.9102C43.3875 29.0225 43.3153 29.1137 43.2746 29.349C43.2352 29.5843 43.2733 29.69 43.3009 29.8196C43.3271 29.9491 43.3665 30.076 43.4112 30.2161C43.4991 30.4963 43.6108 30.8135 43.7211 31.1228C43.8314 31.4321 43.9364 31.7375 44.0008 31.9622C44.0152 32.0137 44.0191 32.0375 44.0283 32.0785C43.9955 32.1036 43.9797 32.1181 43.9364 32.1472C43.6933 32.3079 43.4454 32.4613 43.1932 32.6072C42.9135 32.7724 42.6246 32.9403 42.3791 33.0976C42.257 33.1769 42.1466 33.2509 42.0442 33.3329C41.9405 33.4148 41.8446 33.4703 41.7264 33.6792C41.6083 33.8867 41.6083 33.9964 41.5899 34.1286C41.5734 34.2664 41.5634 34.4049 41.5597 34.5436C41.5466 34.837 41.5466 35.1715 41.5466 35.5019C41.5466 35.831 41.5439 36.1522 41.5282 36.3875C41.5242 36.4404 41.5203 36.4628 41.515 36.5065C41.4756 36.5197 41.4573 36.5263 41.4074 36.5395C41.1841 36.595 40.8729 36.6545 40.5538 36.7113C40.2348 36.7708 39.9091 36.8277 39.6255 36.8898C39.4926 36.9178 39.3611 36.9522 39.2315 36.9929C39.1055 37.0339 38.9952 37.0537 38.8113 37.211C38.6301 37.3656 38.5934 37.4727 38.533 37.5903C38.4707 37.7132 38.4142 37.8389 38.3636 37.967C38.2533 38.2393 38.1417 38.5566 38.03 38.8658C37.9184 39.1738 37.8055 39.4739 37.7123 39.688C37.6913 39.7369 37.6794 39.7541 37.6597 39.7924C37.623 39.7924 37.6033 39.7924 37.5547 39.7792C37.2672 39.7426 36.9808 39.6977 36.6959 39.6444C36.3781 39.5875 36.0499 39.5281 35.7636 39.4897C35.6282 39.4695 35.4919 39.4558 35.3552 39.4488C35.2239 39.4488 35.1136 39.4276 34.8878 39.5109C34.6632 39.5942 34.5923 39.6801 34.4965 39.7686C34.397 39.8633 34.3019 39.9626 34.2115 40.066C34.0159 40.2828 33.8044 40.5419 33.5957 40.793C33.3869 41.0442 33.1807 41.286 33.0218 41.4539L32.943 41.5345C32.9063 41.5187 32.8853 41.5121 32.8419 41.4909C32.5841 41.3564 32.3301 41.2144 32.0803 41.0653C31.7993 40.9014 31.5104 40.7322 31.2531 40.5947C31.1336 40.5291 31.0108 40.4696 30.8854 40.4163C30.7633 40.3661 30.6687 40.3079 30.4284 40.3079C30.1881 40.3079 30.091 40.3661 29.9688 40.4163C29.8435 40.4707 29.7208 40.5312 29.6012 40.5974C29.3438 40.7348 29.0575 40.904 28.7765 41.0666C28.4955 41.2305 28.2211 41.3878 28.0149 41.4896C27.9716 41.5121 27.9506 41.5187 27.9151 41.5345C27.8862 41.5068 27.8692 41.4909 27.8363 41.4552C27.6761 41.286 27.4687 41.0455 27.2612 40.7943C27.0511 40.5432 26.841 40.2828 26.6454 40.066C26.555 39.9625 26.4599 39.8633 26.3604 39.7686C26.2646 39.6801 26.1936 39.5942 25.9691 39.5109C25.7432 39.4276 25.6329 39.4435 25.5016 39.4488C25.3703 39.4488 25.2377 39.4699 25.0946 39.4897C24.8057 39.5294 24.4787 39.5889 24.1609 39.6444C23.8419 39.7012 23.5293 39.7541 23.3009 39.7792C23.2536 39.7792 23.2352 39.7792 23.1958 39.7924C23.1774 39.7554 23.1656 39.7382 23.1446 39.6893C23.0527 39.4739 22.9384 39.1738 22.8268 38.8645C22.7152 38.5566 22.6036 38.2393 22.4933 37.9657C22.4427 37.838 22.3862 37.7127 22.3239 37.5903C22.2635 37.4714 22.2267 37.3656 22.0442 37.2097C21.8617 37.0537 21.7514 37.0339 21.6266 36.9929C21.4971 36.9522 21.3656 36.9178 21.2327 36.8898C20.9478 36.8263 20.6221 36.7708 20.303 36.7127C19.9839 36.6545 19.6727 36.5937 19.4495 36.5395C19.3996 36.5263 19.3799 36.5184 19.3418 36.5051C19.3366 36.4628 19.3326 36.4391 19.3287 36.3862C19.3129 36.1522 19.3116 35.831 19.3103 35.5006C19.3103 35.1715 19.3103 34.837 19.2972 34.5436C19.2935 34.4044 19.2834 34.2655 19.267 34.1273C19.2499 33.9964 19.2499 33.8867 19.1304 33.6778C19.0122 33.4703 18.9164 33.4135 18.8126 33.3329C18.7036 33.2489 18.5905 33.1704 18.4739 33.0976C18.2296 32.9403 17.942 32.7724 17.661 32.6085C17.3814 32.442 17.1095 32.2781 16.9178 32.1472C16.8745 32.1181 16.8587 32.1036 16.8259 32.0785C16.8351 32.0375 16.839 32.0124 16.8535 31.9622C16.9178 31.7375 17.0242 31.4321 17.1332 31.1228C17.2435 30.8135 17.3564 30.4963 17.4431 30.2161C17.4877 30.076 17.5258 29.9491 17.5534 29.8196C17.5809 29.69 17.619 29.5843 17.5796 29.349C17.5389 29.1137 17.4667 29.0225 17.3971 28.9102C17.3232 28.7945 17.2439 28.6825 17.1594 28.5744C16.9822 28.3418 16.7681 28.0854 16.5607 27.8316C16.3545 27.5791 16.1536 27.3306 16.017 27.1416C15.9855 27.098 15.9737 27.0769 15.9514 27.0412C15.9737 27.0055 15.9855 26.9843 16.017 26.9407C16.1536 26.7517 16.3545 26.5019 16.5607 26.2494C16.7681 25.9956 16.9809 25.7379 17.1594 25.5053C17.2474 25.3889 17.3275 25.2792 17.3971 25.1669C17.4667 25.0545 17.5389 24.9686 17.5796 24.7333C17.6203 24.4981 17.5809 24.3923 17.5534 24.2641C17.5229 24.1289 17.486 23.9953 17.4431 23.8636C17.3551 23.5834 17.2435 23.2688 17.1332 22.9595C17.0319 22.6825 16.9387 22.4026 16.8535 22.1202C16.839 22.0686 16.8351 22.0461 16.8259 22.0052C16.8587 21.9787 16.8745 21.9642 16.9178 21.9351C17.1082 21.8029 17.3814 21.6404 17.661 21.4751C17.942 21.3099 18.2296 21.142 18.4752 20.9861C18.5973 20.9068 18.7102 20.8288 18.8126 20.7481C18.9164 20.6649 19.0122 20.6094 19.1304 20.4018C19.2486 20.193 19.2486 20.0806 19.267 19.9498C19.284 19.8176 19.2919 19.6841 19.2972 19.5361C19.3103 19.2426 19.3103 18.9056 19.3103 18.5765C19.3103 18.246 19.3129 17.9248 19.3287 17.6909C19.3313 17.638 19.3366 17.6168 19.3418 17.5745C19.3812 17.5613 19.3996 17.5534 19.4495 17.5415C19.6727 17.486 19.9839 17.4291 20.303 17.3697C20.6221 17.3128 20.9478 17.256 21.2314 17.1926C21.3643 17.1637 21.4958 17.1284 21.6253 17.0868C21.7514 17.0458 21.8617 17.0286 22.0455 16.8727C22.2267 16.7167 22.2635 16.6096 22.3239 16.4933C22.3843 16.3744 22.4381 16.2514 22.4933 16.1166C22.6036 15.8443 22.7152 15.5271 22.8268 15.2178C22.9384 14.9085 23.0514 14.6058 23.1446 14.3917L23.1932 14.2886C23.2326 14.2886 23.2523 14.2886 23.3009 14.3018C23.5293 14.3256 23.8419 14.3785 24.1609 14.4353C24.4787 14.4921 24.807 14.5516 25.0933 14.59C25.2377 14.6098 25.3703 14.6256 25.5016 14.6309C25.6329 14.6309 25.7432 14.656 25.9691 14.5728C26.1936 14.4895 26.2646 14.4036 26.3604 14.3137C26.4598 14.2194 26.5549 14.1206 26.6454 14.0176C26.841 13.7995 27.0524 13.5418 27.2612 13.2893C27.47 13.0382 27.6762 12.7923 27.835 12.6231C27.8692 12.5875 27.8876 12.5756 27.9138 12.5478H27.9151ZM30.4284 15.8113C24.2712 15.8113 19.267 20.8486 19.267 27.0465C19.267 33.2443 24.2712 38.2816 30.4284 38.2816C36.5856 38.2816 41.5899 33.2443 41.5899 27.0465C41.5899 20.8486 36.5856 15.8113 30.4284 15.8113ZM30.4284 17.0577C31.7317 17.0567 33.0224 17.3144 34.2267 17.816C35.431 18.3176 36.5251 19.0534 37.4466 19.9812C38.368 20.909 39.0987 22.0106 39.5967 23.2229C40.0947 24.4352 40.3504 25.7345 40.349 27.0465C40.3504 28.3582 40.0947 29.6574 39.5967 30.8696C39.0986 32.0818 38.3679 33.1832 37.4464 34.1108C36.5249 35.0384 35.4307 35.7739 34.2265 36.2752C33.0223 36.7766 31.7316 37.0339 30.4284 37.0325C29.1253 37.0339 27.8346 36.7766 26.6304 36.2752C25.4261 35.7739 24.3319 35.0384 23.4105 34.1108C22.489 33.1832 21.7583 32.0818 21.2602 30.8696C20.7621 29.6574 20.5065 28.3582 20.5079 27.0465C20.5065 25.7345 20.7621 24.4352 21.2602 23.2229C21.7582 22.0106 22.4888 20.909 23.4103 19.9812C24.3317 19.0534 25.4259 18.3176 26.6302 17.816C27.8344 17.3144 29.1251 17.0567 30.4284 17.0577ZM30.3982 20.7191C30.003 20.7191 29.831 20.9239 29.6997 21.068C29.5727 21.2125 29.461 21.3697 29.3661 21.5373C29.1626 21.8796 28.963 22.2907 28.7687 22.707C28.5743 23.1234 28.3852 23.545 28.2277 23.8636C28.1489 24.0222 28.078 24.1584 28.0254 24.2456C28.0149 24.2628 28.0097 24.2681 27.9992 24.2813C27.986 24.2813 27.9795 24.2945 27.9611 24.2945C27.8626 24.3196 27.7155 24.3474 27.5409 24.3738C27.1903 24.432 26.736 24.4875 26.2803 24.5496C25.8273 24.6117 25.3743 24.6818 24.9882 24.7769C24.8022 24.8186 24.621 24.8793 24.4472 24.958C24.2726 25.0413 24.0283 25.1431 23.9088 25.5211C23.7893 25.8991 23.9272 26.1252 24.0218 26.2957C24.1163 26.4649 24.2319 26.6063 24.3632 26.7583C24.6232 27.0584 24.9514 27.3769 25.2863 27.6915C25.6211 28.0074 25.9612 28.318 26.2147 28.5665C26.3407 28.6908 26.4471 28.8005 26.5127 28.8771C26.5232 28.8903 26.5246 28.8956 26.5324 28.9075C26.5324 28.9247 26.5364 28.9313 26.5351 28.9511C26.5239 29.0959 26.5068 29.2401 26.4838 29.3834C26.4287 29.735 26.342 30.1844 26.2606 30.6377C26.1792 31.0911 26.103 31.5432 26.0742 31.941C26.0584 32.1393 26.0545 32.3243 26.0781 32.5173C26.1044 32.7103 26.124 32.9747 26.4458 33.206C26.7662 33.4373 27.0222 33.3725 27.2126 33.3355C27.3995 33.2941 27.5817 33.2334 27.7562 33.1544C28.1213 32.9984 28.5244 32.7843 28.9249 32.5596C29.3267 32.3376 29.7246 32.1089 30.0384 31.9437C30.196 31.8617 30.3326 31.7969 30.4258 31.7586C30.4455 31.7454 30.4521 31.7454 30.4691 31.7454C30.6135 31.8048 30.7555 31.87 30.8946 31.941C31.211 32.1023 31.6089 32.3243 32.0134 32.5424C32.4178 32.7605 32.8235 32.9747 33.1912 33.1267C33.3751 33.202 33.5458 33.2628 33.7375 33.2985C33.9279 33.3355 34.1839 33.3963 34.5017 33.1597C34.8195 32.9244 34.8405 32.6587 34.8628 32.4658C34.8818 32.275 34.8809 32.0827 34.8602 31.8921C34.826 31.4956 34.742 31.0409 34.6553 30.5888C34.5687 30.1355 34.4781 29.6874 34.419 29.3358C34.3937 29.1939 34.374 29.051 34.3599 28.9075V28.8666C34.4597 28.7455 34.5648 28.6291 34.675 28.5176C34.9245 28.2665 35.2633 27.9519 35.5942 27.632C35.9251 27.3148 36.2508 26.9949 36.5068 26.6909C36.6355 26.5376 36.7471 26.3908 36.8404 26.2203C36.9323 26.0485 37.0702 25.8251 36.9454 25.4484C36.8207 25.0717 36.5751 24.9699 36.3992 24.888C36.2235 24.8107 36.0405 24.7518 35.8529 24.7122C35.4254 24.6221 34.9937 24.5532 34.5595 24.506C34.1051 24.4491 33.6482 24.3976 33.2989 24.3474C33.1565 24.3266 33.015 24.3002 32.8748 24.2681C32.8577 24.2681 32.8538 24.2548 32.8393 24.2548C32.8288 24.2416 32.8222 24.2363 32.8104 24.2192C32.7373 24.0963 32.669 23.9706 32.6056 23.8424C32.4441 23.5252 32.2484 23.1089 32.0488 22.6938C31.8649 22.2962 31.6616 21.908 31.4395 21.5306C31.342 21.3641 31.2276 21.2082 31.0981 21.0654C30.9642 20.9226 30.7922 20.7217 30.3982 20.7244V20.7191ZM30.4074 22.3845C30.5492 22.6317 30.7042 22.9225 30.867 23.2622C31.0614 23.664 31.2544 24.0857 31.4343 24.4386C31.5236 24.6157 31.6089 24.7743 31.6969 24.9171C31.7875 25.0598 31.8453 25.1814 32.0593 25.3347C32.2747 25.4894 32.4073 25.5053 32.5701 25.5436C32.7329 25.5832 32.9115 25.6136 33.1059 25.6427C33.4972 25.7009 33.9568 25.7524 34.398 25.8079C34.7696 25.8542 35.0926 25.9071 35.3697 25.9626C35.1806 26.1741 34.9534 26.412 34.6829 26.6724C34.3625 26.9817 34.0237 27.2976 33.744 27.5778C33.6048 27.7192 33.4814 27.8488 33.3764 27.9783C33.2674 28.1078 33.1676 28.2004 33.0875 28.4542C33.0087 28.7053 33.035 28.8375 33.0494 29.0053C33.0625 29.1732 33.0888 29.353 33.1216 29.5473C33.1873 29.9398 33.2831 30.3932 33.3672 30.8334C33.4381 31.2035 33.488 31.5286 33.5208 31.8115C33.2212 31.6758 32.9264 31.5294 32.6371 31.3727C32.2432 31.1612 31.84 30.9365 31.4881 30.7567C31.3274 30.6729 31.1631 30.5961 30.9957 30.5267C30.8394 30.4633 30.7199 30.3972 30.4573 30.3998C30.1921 30.3998 30.0765 30.4699 29.9203 30.5346C29.7666 30.5994 29.6051 30.68 29.4305 30.7726C29.0812 30.955 28.6794 31.185 28.2894 31.4017C27.9611 31.5841 27.667 31.7322 27.4096 31.8511C27.4398 31.567 27.4884 31.2405 27.554 30.8704C27.6328 30.4302 27.7208 29.9742 27.7812 29.5816C27.8127 29.386 27.8337 29.2076 27.8469 29.0397C27.8574 28.8718 27.8823 28.7383 27.7996 28.4872C27.7169 28.2361 27.6184 28.1449 27.5107 28.0166C27.3904 27.879 27.2643 27.7467 27.1325 27.6201C26.8502 27.3425 26.5088 27.0319 26.1845 26.7266C25.9442 26.5011 25.7121 26.267 25.4885 26.0247C25.7669 25.9666 26.0899 25.9058 26.4602 25.8568C26.9014 25.796 27.3584 25.7418 27.7484 25.6784C27.9427 25.6467 28.12 25.6123 28.2815 25.5727C28.4443 25.5317 28.5796 25.5158 28.7923 25.3585C29.005 25.1999 29.0589 25.0783 29.1468 24.9356C29.2335 24.7902 29.3175 24.6302 29.4055 24.4518C29.5802 24.0962 29.7706 23.6746 29.9597 23.2701C30.1172 22.9291 30.2695 22.633 30.4074 22.3845ZM22.1611 40.6516C22.2215 40.76 22.2832 40.871 22.4985 40.9979C22.7441 41.142 22.882 41.1221 23.0212 41.1261C23.1617 41.1261 23.2982 41.1129 23.4453 41.1036C23.7381 41.0719 24.0651 41.0137 24.3881 40.9556C24.7125 40.8988 25.0302 40.8419 25.2705 40.8102C25.3703 40.797 25.4425 40.789 25.5043 40.7838C25.5489 40.8274 25.6014 40.8802 25.671 40.9556C25.8352 41.1393 26.044 41.3918 26.2554 41.6456L26.3604 41.7672L23.7499 46.3207L23.1577 44.0948C23.1088 43.9133 22.9904 43.7588 22.8284 43.6651C22.6664 43.5714 22.4741 43.5463 22.2937 43.5952L20.1008 44.186L22.1598 40.6516H22.1611ZM38.6918 40.6648L40.7482 44.194L38.5553 43.6018C38.3747 43.5538 38.1826 43.5799 38.0211 43.6743C37.8596 43.7687 37.7419 43.9237 37.6939 44.1054L37.1017 46.326L34.4912 41.7777C34.528 41.7328 34.5647 41.6958 34.6015 41.6508C34.8116 41.3957 35.0217 41.1446 35.1858 40.9609C35.2394 40.9016 35.295 40.8443 35.3526 40.789C35.4143 40.789 35.4865 40.8049 35.5863 40.8155C35.8266 40.8472 36.1444 40.904 36.4687 40.9609C36.7918 41.0177 37.1187 41.0759 37.4116 41.1089C37.5586 41.1248 37.6952 41.1354 37.8357 41.1314C37.9749 41.1314 38.1128 41.1472 38.3583 41.0032C38.5015 40.9278 38.618 40.8096 38.6918 40.6648Z" fill="#FEAD06"/>
</svg>
