<svg width="60" height="60" viewBox="0 0 60 60" fill="none" xmlns="http://www.w3.org/2000/svg">
<rect width="60" height="60" rx="4" fill="#FEAD06" fill-opacity="0.2"/>
<g clip-path="url(#clip0_71_18)">
<path d="M25.6426 13.8571H33.4998C34.0422 13.8571 34.4819 13.4173 34.4819 12.875C34.4819 12.3326 34.0422 11.8928 33.4998 11.8928H25.6426C25.1003 11.8928 24.6605 12.3326 24.6605 12.875C24.6605 13.4173 25.1003 13.8571 25.6426 13.8571ZM41.3441 23.1157L44.0155 20.4443C44.3832 20.0637 44.3832 19.4603 44.0155 19.0797C43.6387 18.6895 43.0169 18.6787 42.6268 19.0556L39.9554 21.727C37.1852 19.2816 33.557 17.7857 29.5712 17.7857C25.5855 17.7857 21.9572 19.2816 19.1869 21.7271L16.5155 19.0557C16.135 18.688 15.5316 18.688 15.1509 19.0557C14.7608 19.4325 14.75 20.0542 15.1268 20.4444L17.7982 23.1158C15.3528 25.886 13.8569 29.5142 13.8569 33.5C13.8569 42.1787 20.8925 49.2143 29.5712 49.2143C38.2459 49.2043 45.2756 42.1746 45.2855 33.5C45.2855 29.5142 43.7896 25.886 41.3441 23.1157ZM29.5712 47.25C21.9774 47.25 15.8212 41.0938 15.8212 33.5C15.8212 29.7172 17.3502 26.2923 19.8222 23.8062C19.832 23.7971 19.8456 23.7938 19.8551 23.7843C19.8648 23.7747 19.8676 23.7615 19.8768 23.7516C22.3628 21.279 25.788 19.75 29.5712 19.75C33.3623 19.7545 36.7939 21.2916 39.2808 23.7746C39.2862 23.78 39.2911 23.785 39.2966 23.7904C41.7795 26.2773 43.3167 29.7089 43.3212 33.5C43.3212 41.0938 37.1651 47.25 29.5712 47.25ZM30.5534 30.7339V26.625C30.5534 26.0826 30.1136 25.6428 29.5712 25.6428C29.0288 25.6428 28.5891 26.0826 28.5891 26.625V30.7339C27.4474 31.1397 26.6248 32.2189 26.6248 33.5C26.6248 35.1272 27.9439 36.4464 29.5712 36.4464C31.1985 36.4464 32.5176 35.1272 32.5176 33.5C32.5176 32.2189 31.6951 31.1397 30.5534 30.7339Z" fill="#FEAD06"/>
</g>
<defs>
<clipPath id="clip0_71_18">
<rect width="47.1429" height="47.1429" fill="white" transform="translate(6 6)"/>
</clipPath>
</defs>
</svg>
