<svg width="57" height="57" viewBox="0 0 57 57" fill="none" xmlns="http://www.w3.org/2000/svg">
<rect width="57" height="57" rx="4" fill="#FEAD06" fill-opacity="0.2"/>
<mask id="path-2-outside-1_38_18" maskUnits="userSpaceOnUse" x="9" y="11" width="39" height="35" fill="black">
<rect fill="white" x="9" y="11" width="39" height="35"/>
<path d="M45.6075 27.8271H45.4086V22.4074C45.4086 20.7159 44.1526 19.3156 42.5226 19.0752V17.8558C42.5226 15.9961 41.0056 14.4832 39.1409 14.4832H37.6426L36.8536 12.3861C36.7998 12.2429 36.6927 12.1259 36.5546 12.0593C36.4165 11.9928 36.258 11.9818 36.1121 12.0286L28.4729 14.4832H12.8784C11.2914 14.4832 10 15.7711 10 17.3539V41.3707C10 43.2304 11.517 44.7434 13.3817 44.7434H42.0269C43.8916 44.7434 45.4086 43.2304 45.4086 41.3707V35.9509H45.6075C46.3754 35.9509 47 35.328 47 34.5622V29.2159C47 28.4505 46.3754 27.8271 45.6075 27.8271ZM38.0906 15.6739H39.1409C40.3472 15.6739 41.3291 16.6528 41.3291 17.8562V19.0351H39.3553L39.2364 18.7189L38.0906 15.6739ZM36.3679 14.4835L37.3374 17.0603L38.0806 19.0351H18.1993L35.9362 13.3364L36.3679 14.4835ZM12.8784 15.6739H24.7678L17.2723 18.0824L14.3071 19.0351H12.8784C11.9495 19.0351 11.1935 18.2812 11.1935 17.3547C11.1935 16.4282 11.9495 15.6739 12.8784 15.6739ZM44.2151 41.3707C44.2151 42.5741 43.2332 43.553 42.0269 43.553H13.3817C12.8016 43.5524 12.2454 43.3222 11.8351 42.9131C11.4249 42.504 11.1942 41.9493 11.1935 41.3707V19.6807C11.2019 19.687 11.2118 19.691 11.2206 19.6973C11.3248 19.7707 11.4335 19.8378 11.5472 19.8973C11.5683 19.9084 11.5906 19.918 11.6121 19.9287C11.7175 19.9806 11.8261 20.0263 11.9383 20.0652C11.9574 20.0719 11.9757 20.0794 11.9948 20.0858C12.1189 20.1259 12.2467 20.156 12.3775 20.179C12.4066 20.1842 12.436 20.1882 12.4655 20.1925C12.6007 20.212 12.738 20.2255 12.8784 20.2255H42.0269C43.2332 20.2255 44.2151 21.2043 44.2151 22.4078V27.8275H40.2612C38.3965 27.8275 36.8795 29.3405 36.8795 31.2002V32.5786C36.8795 34.4384 38.3965 35.9513 40.2612 35.9513H44.2151V41.3707ZM45.8065 34.5622C45.8065 34.6148 45.7855 34.6653 45.7482 34.7025C45.7109 34.7397 45.6603 34.7606 45.6075 34.7606H40.2612C39.6811 34.76 39.1249 34.5298 38.7147 34.1207C38.3044 33.7116 38.0737 33.1568 38.0731 32.5783V31.1998C38.0731 29.9964 39.0549 29.0175 40.2612 29.0175H45.6075C45.6603 29.0175 45.7109 29.0384 45.7482 29.0756C45.7855 29.1128 45.8065 29.1633 45.8065 29.2159V34.5622Z"/>
</mask>
<path d="M45.6075 27.8271H45.4086V22.4074C45.4086 20.7159 44.1526 19.3156 42.5226 19.0752V17.8558C42.5226 15.9961 41.0056 14.4832 39.1409 14.4832H37.6426L36.8536 12.3861C36.7998 12.2429 36.6927 12.1259 36.5546 12.0593C36.4165 11.9928 36.258 11.9818 36.1121 12.0286L28.4729 14.4832H12.8784C11.2914 14.4832 10 15.7711 10 17.3539V41.3707C10 43.2304 11.517 44.7434 13.3817 44.7434H42.0269C43.8916 44.7434 45.4086 43.2304 45.4086 41.3707V35.9509H45.6075C46.3754 35.9509 47 35.328 47 34.5622V29.2159C47 28.4505 46.3754 27.8271 45.6075 27.8271ZM38.0906 15.6739H39.1409C40.3472 15.6739 41.3291 16.6528 41.3291 17.8562V19.0351H39.3553L39.2364 18.7189L38.0906 15.6739ZM36.3679 14.4835L37.3374 17.0603L38.0806 19.0351H18.1993L35.9362 13.3364L36.3679 14.4835ZM12.8784 15.6739H24.7678L17.2723 18.0824L14.3071 19.0351H12.8784C11.9495 19.0351 11.1935 18.2812 11.1935 17.3547C11.1935 16.4282 11.9495 15.6739 12.8784 15.6739ZM44.2151 41.3707C44.2151 42.5741 43.2332 43.553 42.0269 43.553H13.3817C12.8016 43.5524 12.2454 43.3222 11.8351 42.9131C11.4249 42.504 11.1942 41.9493 11.1935 41.3707V19.6807C11.2019 19.687 11.2118 19.691 11.2206 19.6973C11.3248 19.7707 11.4335 19.8378 11.5472 19.8973C11.5683 19.9084 11.5906 19.918 11.6121 19.9287C11.7175 19.9806 11.8261 20.0263 11.9383 20.0652C11.9574 20.0719 11.9757 20.0794 11.9948 20.0858C12.1189 20.1259 12.2467 20.156 12.3775 20.179C12.4066 20.1842 12.436 20.1882 12.4655 20.1925C12.6007 20.212 12.738 20.2255 12.8784 20.2255H42.0269C43.2332 20.2255 44.2151 21.2043 44.2151 22.4078V27.8275H40.2612C38.3965 27.8275 36.8795 29.3405 36.8795 31.2002V32.5786C36.8795 34.4384 38.3965 35.9513 40.2612 35.9513H44.2151V41.3707ZM45.8065 34.5622C45.8065 34.6148 45.7855 34.6653 45.7482 34.7025C45.7109 34.7397 45.6603 34.7606 45.6075 34.7606H40.2612C39.6811 34.76 39.1249 34.5298 38.7147 34.1207C38.3044 33.7116 38.0737 33.1568 38.0731 32.5783V31.1998C38.0731 29.9964 39.0549 29.0175 40.2612 29.0175H45.6075C45.6603 29.0175 45.7109 29.0384 45.7482 29.0756C45.7855 29.1128 45.8065 29.1633 45.8065 29.2159V34.5622Z" fill="#FEAD06"/>
<path d="M45.4086 27.8271H44.9086V28.3271H45.4086V27.8271ZM42.5226 19.0752H42.0226V19.5068L42.4496 19.5698L42.5226 19.0752ZM37.6426 14.4832L37.1746 14.6592L37.2965 14.9832H37.6426V14.4832ZM36.8536 12.3861L36.3857 12.5622L36.3857 12.5622L36.8536 12.3861ZM36.1121 12.0286L35.9592 11.5526L35.9591 11.5526L36.1121 12.0286ZM28.4729 14.4832V14.9832H28.5513L28.6259 14.9592L28.4729 14.4832ZM45.4086 35.9509V35.4509H44.9086V35.9509H45.4086ZM38.0906 15.6739V15.1739H37.3682L37.6226 15.85L38.0906 15.6739ZM41.3291 19.0351V19.5351H41.8291V19.0351H41.3291ZM39.3553 19.0351L38.8873 19.2111L39.0092 19.5351H39.3553V19.0351ZM39.2364 18.7189L39.7044 18.5428L39.7043 18.5428L39.2364 18.7189ZM36.3679 14.4835L36.8358 14.3075L36.8358 14.3075L36.3679 14.4835ZM37.3374 17.0603L36.8695 17.2364L36.8695 17.2364L37.3374 17.0603ZM38.0806 19.0351V19.5351H38.803L38.5486 18.859L38.0806 19.0351ZM18.1993 19.0351L18.0463 18.5591L18.1993 19.5351V19.0351ZM35.9362 13.3364L36.4042 13.1603L36.2365 12.7148L35.7833 12.8604L35.9362 13.3364ZM24.7678 15.6739L24.9207 16.1499L24.7678 15.1739V15.6739ZM17.2723 18.0824L17.4252 18.5584L17.4253 18.5584L17.2723 18.0824ZM14.3071 19.0351V19.5351H14.3855L14.4601 19.5111L14.3071 19.0351ZM13.3817 43.553L13.3812 44.053H13.3817V43.553ZM11.1935 41.3707H10.6935L10.6935 41.3712L11.1935 41.3707ZM11.1935 19.6807L11.4961 19.2826L10.6935 18.6728V19.6807H11.1935ZM11.2206 19.6973L10.927 20.1021L10.9327 20.1061L11.2206 19.6973ZM11.5472 19.8973L11.7803 19.455L11.779 19.4543L11.5472 19.8973ZM11.6121 19.9287L11.389 20.3761L11.391 20.3771L11.6121 19.9287ZM11.9383 20.0652L12.1049 19.5937L12.1021 19.5927L11.9383 20.0652ZM11.9948 20.0858L11.8371 20.5603L11.8412 20.5616L11.9948 20.0858ZM12.3775 20.179L12.465 19.6867L12.4641 19.6866L12.3775 20.179ZM12.4655 20.1925L12.3921 20.6871L12.3943 20.6874L12.4655 20.1925ZM44.2151 27.8275V28.3275H44.7151V27.8275H44.2151ZM44.2151 35.9513H44.7151V35.4513H44.2151V35.9513ZM40.2612 34.7606L40.2607 35.2606H40.2612V34.7606ZM38.0731 32.5783H37.5731V32.5788L38.0731 32.5783ZM45.6075 27.3271H45.4086V28.3271H45.6075V27.3271ZM45.9086 27.8271V22.4074H44.9086V27.8271H45.9086ZM45.9086 22.4074C45.9086 20.462 44.4649 18.8563 42.5956 18.5805L42.4496 19.5698C43.8403 19.775 44.9086 20.9698 44.9086 22.4074H45.9086ZM43.0226 19.0752V17.8558H42.0226V19.0752H43.0226ZM43.0226 17.8558C43.0226 15.7187 41.2805 13.9832 39.1409 13.9832V14.9832C40.7307 14.9832 42.0226 16.2735 42.0226 17.8558H43.0226ZM39.1409 13.9832H37.6426V14.9832H39.1409V13.9832ZM38.1106 14.3071L37.3216 12.2101L36.3857 12.5622L37.1746 14.6592L38.1106 14.3071ZM37.3216 12.2101C37.2224 11.9463 37.0253 11.7312 36.7717 11.6089L36.3375 12.5097C36.36 12.5206 36.3771 12.5395 36.3857 12.5622L37.3216 12.2101ZM36.7717 11.6089C36.5182 11.4867 36.2272 11.4665 35.9592 11.5526L36.2649 12.5047C36.2889 12.497 36.3149 12.4988 36.3375 12.5097L36.7717 11.6089ZM35.9591 11.5526L28.32 14.0071L28.6259 14.9592L36.265 12.5047L35.9591 11.5526ZM28.4729 13.9832H12.8784V14.9832H28.4729V13.9832ZM12.8784 13.9832C11.0165 13.9832 9.5 15.4937 9.5 17.3539H10.5C10.5 16.0485 11.5663 14.9832 12.8784 14.9832V13.9832ZM9.5 17.3539V41.3707H10.5V17.3539H9.5ZM9.5 41.3707C9.5 43.5078 11.2421 45.2434 13.3817 45.2434V44.2434C11.7919 44.2434 10.5 42.953 10.5 41.3707H9.5ZM13.3817 45.2434H42.0269V44.2434H13.3817V45.2434ZM42.0269 45.2434C44.1665 45.2434 45.9086 43.5078 45.9086 41.3707H44.9086C44.9086 42.953 43.6167 44.2434 42.0269 44.2434V45.2434ZM45.9086 41.3707V35.9509H44.9086V41.3707H45.9086ZM45.4086 36.4509H45.6075V35.4509H45.4086V36.4509ZM45.6075 36.4509C46.6503 36.4509 47.5 35.6054 47.5 34.5622H46.5C46.5 35.0506 46.1005 35.4509 45.6075 35.4509V36.4509ZM47.5 34.5622V29.2159H46.5V34.5622H47.5ZM47.5 29.2159C47.5 28.1732 46.6504 27.3271 45.6075 27.3271V28.3271C46.1004 28.3271 46.5 28.7278 46.5 29.2159H47.5ZM38.0906 16.1739H39.1409V15.1739H38.0906V16.1739ZM39.1409 16.1739C40.0723 16.1739 40.8291 16.9302 40.8291 17.8562H41.8291C41.8291 16.3753 40.622 15.1739 39.1409 15.1739V16.1739ZM40.8291 17.8562V19.0351H41.8291V17.8562H40.8291ZM41.3291 18.5351H39.3553V19.5351H41.3291V18.5351ZM39.8233 18.8591L39.7044 18.5428L38.7684 18.8949L38.8873 19.2111L39.8233 18.8591ZM39.7043 18.5428L38.5585 15.4978L37.6226 15.85L38.7684 18.895L39.7043 18.5428ZM35.8999 14.6596L36.8695 17.2364L37.8054 16.8842L36.8358 14.3075L35.8999 14.6596ZM36.8695 17.2364L37.6127 19.2112L38.5486 18.859L37.8054 16.8842L36.8695 17.2364ZM38.0806 18.5351H18.1993V19.5351H38.0806V18.5351ZM18.3522 19.5111L36.0891 13.8125L35.7833 12.8604L18.0463 18.5591L18.3522 19.5111ZM35.4682 13.5125L35.8999 14.6596L36.8358 14.3075L36.4042 13.1603L35.4682 13.5125ZM12.8784 16.1739H24.7678V15.1739H12.8784V16.1739ZM24.6148 15.1979L17.1193 17.6064L17.4253 18.5584L24.9207 16.1499L24.6148 15.1979ZM17.1193 17.6064L14.1542 18.5591L14.4601 19.5111L17.4252 18.5584L17.1193 17.6064ZM14.3071 18.5351H12.8784V19.5351H14.3071V18.5351ZM12.8784 18.5351C12.2243 18.5351 11.6935 18.0038 11.6935 17.3547H10.6935C10.6935 18.5586 11.6746 19.5351 12.8784 19.5351V18.5351ZM11.6935 17.3547C11.6935 16.7055 12.2245 16.1739 12.8784 16.1739V15.1739C11.6744 15.1739 10.6935 16.151 10.6935 17.3547H11.6935ZM43.7151 41.3707C43.7151 42.2967 42.9583 43.053 42.0269 43.053V44.053C43.508 44.053 44.7151 42.8516 44.7151 41.3707H43.7151ZM42.0269 43.053H13.3817V44.053H42.0269V43.053ZM13.3823 43.053C12.9341 43.0525 12.5047 42.8747 12.1882 42.5591L11.4821 43.2671C11.986 43.7698 12.669 44.0522 13.3812 44.053L13.3823 43.053ZM12.1882 42.5591C11.8718 42.2435 11.694 41.8159 11.6935 41.3701L10.6935 41.3712C10.6943 42.0827 10.9781 42.7645 11.4821 43.2671L12.1882 42.5591ZM11.6935 41.3707V19.6807H10.6935V41.3707H11.6935ZM10.891 20.0788C10.9109 20.0939 10.9284 20.1051 10.9404 20.1123C10.9516 20.1192 10.9615 20.1246 10.9634 20.1257C10.9677 20.1281 10.9633 20.1257 10.9583 20.1227C10.9524 20.1192 10.941 20.1122 10.927 20.1021L11.5142 19.2926C11.4959 19.2793 11.4799 19.2694 11.4694 19.2632C11.4641 19.26 11.4595 19.2574 11.4565 19.2557C11.4537 19.2541 11.4509 19.2525 11.4504 19.2523C11.4494 19.2517 11.4502 19.2522 11.4515 19.2529C11.453 19.2538 11.456 19.2555 11.4598 19.2578C11.4672 19.2623 11.4804 19.2706 11.4961 19.2826L10.891 20.0788ZM10.9327 20.1061C11.0535 20.1912 11.1808 20.2699 11.3155 20.3404L11.779 19.4543C11.6861 19.4057 11.5962 19.3503 11.5085 19.2885L10.9327 20.1061ZM11.3142 20.3397C11.3358 20.3511 11.3557 20.3604 11.3672 20.3658C11.3817 20.3726 11.3851 20.3742 11.389 20.3761L11.8352 19.4812C11.8176 19.4724 11.7991 19.4639 11.7918 19.4605C11.7815 19.4556 11.7798 19.4547 11.7803 19.455L11.3142 20.3397ZM11.391 20.3771C11.5145 20.438 11.6423 20.4917 11.7746 20.5376L12.1021 19.5927C12.01 19.5608 11.9205 19.5232 11.8332 19.4802L11.391 20.3771ZM11.7718 20.5366C11.7751 20.5378 11.7779 20.5389 11.7903 20.5435C11.8003 20.5473 11.8175 20.5538 11.8371 20.5603L12.1526 19.6113C12.153 19.6115 12.1516 19.611 12.1428 19.6077C12.1365 19.6054 12.1206 19.5993 12.1049 19.5937L11.7718 20.5366ZM11.8412 20.5616C11.9909 20.6099 12.1415 20.6452 12.291 20.6715L12.4641 19.6866C12.3518 19.6668 12.247 19.6418 12.1484 19.61L11.8412 20.5616ZM12.2901 20.6713C12.3285 20.6782 12.3715 20.6841 12.3921 20.6871L12.5388 19.6979C12.5006 19.6923 12.4846 19.6902 12.465 19.6867L12.2901 20.6713ZM12.3943 20.6874C12.5439 20.7089 12.7064 20.7255 12.8784 20.7255V19.7255C12.7696 19.7255 12.6575 19.715 12.5366 19.6976L12.3943 20.6874ZM12.8784 20.7255H42.0269V19.7255H12.8784V20.7255ZM42.0269 20.7255C42.9583 20.7255 43.7151 21.4818 43.7151 22.4078H44.7151C44.7151 20.9269 43.508 19.7255 42.0269 19.7255V20.7255ZM43.7151 22.4078V27.8275H44.7151V22.4078H43.7151ZM44.2151 27.3275H40.2612V28.3275H44.2151V27.3275ZM40.2612 27.3275C38.1216 27.3275 36.3795 29.0631 36.3795 31.2002H37.3795C37.3795 29.6179 38.6714 28.3275 40.2612 28.3275V27.3275ZM36.3795 31.2002V32.5786H37.3795V31.2002H36.3795ZM36.3795 32.5786C36.3795 34.7158 38.1216 36.4513 40.2612 36.4513V35.4513C38.6714 35.4513 37.3795 34.161 37.3795 32.5786H36.3795ZM40.2612 36.4513H44.2151V35.4513H40.2612V36.4513ZM43.7151 35.9513V41.3707H44.7151V35.9513H43.7151ZM45.3065 34.5622C45.3065 34.4818 45.3385 34.4049 45.3951 34.3484L46.1013 35.0565C46.2325 34.9256 46.3065 34.7478 46.3065 34.5622H45.3065ZM45.3951 34.3484C45.4517 34.292 45.5281 34.2606 45.6075 34.2606V35.2606C45.7925 35.2606 45.9701 35.1873 46.1013 35.0565L45.3951 34.3484ZM45.6075 34.2606H40.2612V35.2606H45.6075V34.2606ZM40.2618 34.2606C39.8136 34.2601 39.3842 34.0823 39.0677 33.7667L38.3616 34.4747C38.8655 34.9773 39.5485 35.2598 40.2607 35.2606L40.2618 34.2606ZM39.0677 33.7667C38.7513 33.4511 38.5735 33.0235 38.5731 32.5777L37.5731 32.5788C37.5738 33.2902 37.8576 33.9721 38.3616 34.4747L39.0677 33.7667ZM38.5731 32.5783V31.1998H37.5731V32.5783H38.5731ZM38.5731 31.1998C38.5731 30.2738 39.3298 29.5175 40.2612 29.5175V28.5175C38.7801 28.5175 37.5731 29.7189 37.5731 31.1998H38.5731ZM40.2612 29.5175H45.6075V28.5175H40.2612V29.5175ZM45.6075 29.5175C45.5281 29.5175 45.4517 29.486 45.3951 29.4296L46.1013 28.7216C45.9701 28.5907 45.7925 28.5175 45.6075 28.5175V29.5175ZM45.3951 29.4296C45.3385 29.3732 45.3065 29.2963 45.3065 29.2159H46.3065C46.3065 29.0302 46.2325 28.8524 46.1013 28.7216L45.3951 29.4296ZM45.3065 29.2159V34.5622H46.3065V29.2159H45.3065Z" fill="#FEAD06" mask="url(#path-2-outside-1_38_18)"/>
</svg>
