<svg width="7" height="12" viewBox="0 0 7 12" fill="none" xmlns="http://www.w3.org/2000/svg">
<path fill-rule="evenodd" clip-rule="evenodd" d="M6.76719 11.8246C6.50946 12.0586 6.09264 12.0586 5.83555 11.8246L0.386369 6.86622C0.264391 6.75692 0.167265 6.62537 0.100896 6.47958C0.0345268 6.33378 0.000301838 6.17678 0.000301838 6.01812C0.000301838 5.85946 0.0345268 5.70246 0.100896 5.55666C0.167265 5.41086 0.264391 5.27931 0.386369 5.17002L5.87501 0.175017C5.99957 0.0633855 6.16453 0.000641208 6.33638 -0.00047318C6.50824 -0.00158757 6.6741 0.0590115 6.80028 0.169017C6.86279 0.223341 6.9128 0.289186 6.94723 0.362474C6.98165 0.435763 6.99975 0.514934 7.00041 0.595086C7.00106 0.675238 6.98426 0.754663 6.95104 0.828444C6.91782 0.902224 6.86889 0.96879 6.80728 1.02402L1.78382 5.59422C1.72278 5.64887 1.67418 5.71466 1.64096 5.78759C1.60775 5.86051 1.59062 5.93905 1.59062 6.01842C1.59062 6.09778 1.60775 6.17632 1.64096 6.24925C1.67418 6.32217 1.72278 6.38796 1.78382 6.44262L6.76719 10.9768C6.82821 11.0314 6.8768 11.0972 6.91001 11.17C6.94322 11.2429 6.96034 11.3214 6.96034 11.4007C6.96034 11.48 6.94322 11.5585 6.91001 11.6314C6.8768 11.7043 6.82821 11.77 6.76719 11.8246Z" fill="#757575"/>
</svg>
