<svg width="11" height="11" viewBox="0 0 11 11" fill="none" xmlns="http://www.w3.org/2000/svg">
<g clip-path="url(#clip0_126_2)">
<path d="M10.3161 1.82971L10.2454 1.90042L10.3161 1.8297C10.2544 1.76797 10.1706 1.73329 10.0833 1.73329H5.33176C5.25921 1.42437 5.0887 1.14624 4.84457 0.941168C4.57883 0.717936 4.24289 0.595557 3.89583 0.595557C3.54878 0.595557 3.21283 0.717936 2.94709 0.941168C2.70297 1.14624 2.53246 1.42437 2.45991 1.73329H0.916667C0.829366 1.73329 0.745641 1.76797 0.683911 1.82971C0.62218 1.89144 0.5875 1.97516 0.5875 2.06246C0.5875 2.14976 0.62218 2.23349 0.683911 2.29522C0.745641 2.35695 0.829366 2.39163 0.916667 2.39163H2.45991C2.53246 2.70055 2.70297 2.97868 2.94709 3.18375C3.21283 3.40699 3.54878 3.52937 3.89583 3.52937C4.24289 3.52937 4.57883 3.40699 4.84457 3.18375C5.0887 2.97868 5.25921 2.70055 5.33176 2.39163H10.0833C10.1706 2.39163 10.2544 2.35695 10.3161 2.29522L10.2454 2.22451L10.3161 2.29522C10.3778 2.23349 10.4125 2.14976 10.4125 2.06246C10.4125 1.97516 10.3778 1.89144 10.3161 1.82971ZM3.89583 1.24579C4.05735 1.24579 4.21525 1.29369 4.34955 1.38343C4.48385 1.47316 4.58852 1.60071 4.65034 1.74994C4.71215 1.89916 4.72832 2.06337 4.69681 2.22178C4.6653 2.3802 4.58752 2.52572 4.4733 2.63993C4.35909 2.75414 4.21357 2.83192 4.05516 2.86344C3.89674 2.89495 3.73253 2.87877 3.58331 2.81696C3.43408 2.75515 3.30654 2.65048 3.2168 2.51618C3.12706 2.38188 3.07917 2.22398 3.07917 2.06246C3.07917 1.84587 3.16521 1.63815 3.31836 1.48499C3.47152 1.33184 3.67924 1.24579 3.89583 1.24579ZM10.0833 5.17079H8.54009C8.46754 4.86187 8.29703 4.58374 8.05291 4.37867C7.78717 4.15544 7.45122 4.03306 7.10417 4.03306C6.75711 4.03306 6.42117 4.15544 6.15543 4.37867C5.9113 4.58374 5.74079 4.86187 5.66824 5.17079H0.916667C0.829366 5.17079 0.745641 5.20547 0.68391 5.26721C0.62218 5.32894 0.5875 5.41266 0.5875 5.49996C0.5875 5.58726 0.62218 5.67099 0.68391 5.73272C0.745642 5.79445 0.829366 5.82913 0.916667 5.82913H5.66824C5.74079 6.13805 5.9113 6.41618 6.15543 6.62125C6.42117 6.84449 6.75711 6.96687 7.10417 6.96687C7.45122 6.96687 7.78717 6.84449 8.05291 6.62125C8.29703 6.41618 8.46754 6.13805 8.54009 5.82913H10.0833C10.1706 5.82913 10.2544 5.79445 10.3161 5.73272C10.3778 5.67099 10.4125 5.58726 10.4125 5.49996C10.4125 5.41266 10.3778 5.32894 10.3161 5.26721C10.2544 5.20547 10.1706 5.17079 10.0833 5.17079ZM7.10417 6.31663C6.94265 6.31663 6.78475 6.26873 6.65045 6.17899C6.51615 6.08926 6.41148 5.96171 6.34967 5.81249C6.28785 5.66326 6.27168 5.49906 6.30319 5.34064C6.3347 5.18222 6.41248 5.0367 6.5267 4.92249C6.64091 4.80828 6.78643 4.7305 6.94484 4.69899C7.10326 4.66748 7.26747 4.68365 7.41669 4.74546C7.56592 4.80727 7.69346 4.91195 7.7832 5.04625C7.87294 5.18055 7.92083 5.33844 7.92083 5.49996C7.92083 5.71655 7.83479 5.92428 7.68164 6.07743C7.52848 6.23059 7.32076 6.31663 7.10417 6.31663ZM10.0833 8.60829H5.33176C5.25921 8.29937 5.0887 8.02124 4.84457 7.81617C4.57883 7.59294 4.24289 7.47056 3.89583 7.47056C3.54878 7.47056 3.21283 7.59294 2.94709 7.81617C2.70297 8.02124 2.53246 8.29937 2.45991 8.60829H0.916667C0.829366 8.60829 0.745641 8.64297 0.68391 8.70471C0.62218 8.76644 0.5875 8.85016 0.5875 8.93746C0.5875 9.02476 0.62218 9.10849 0.68391 9.17022C0.745641 9.23195 0.829366 9.26663 0.916667 9.26663H2.45991C2.53246 9.57555 2.70297 9.85368 2.94709 10.0588C3.21283 10.282 3.54878 10.4044 3.89583 10.4044C4.24289 10.4044 4.57883 10.282 4.84457 10.0588C5.0887 9.85368 5.25921 9.57555 5.33176 9.26663H10.0833C10.1706 9.26663 10.2544 9.23195 10.3161 9.17022C10.3778 9.10849 10.4125 9.02476 10.4125 8.93746C10.4125 8.85016 10.3778 8.76644 10.3161 8.70471C10.2544 8.64297 10.1706 8.60829 10.0833 8.60829ZM3.89583 9.75413C3.73431 9.75413 3.57642 9.70623 3.44212 9.61649C3.30782 9.52676 3.20314 9.39921 3.14133 9.24999C3.07952 9.10076 3.06335 8.93655 3.09486 8.77814C3.12637 8.61972 3.20415 8.4742 3.31836 8.35999C3.43258 8.24578 3.57809 8.168 3.73651 8.13649C3.89493 8.10498 4.05913 8.12115 4.20836 8.18296C4.35758 8.24477 4.48513 8.34945 4.57487 8.48375C4.6646 8.61805 4.7125 8.77594 4.7125 8.93746C4.7125 9.15406 4.62646 9.36178 4.4733 9.51493C4.32015 9.66809 4.11243 9.75413 3.89583 9.75413Z" fill="#757575" stroke="#757575" stroke-width="0.2"/>
</g>
<defs>
<clipPath id="clip0_126_2">
<rect width="11" height="11" fill="white"/>
</clipPath>
</defs>
</svg>
