<svg width="25" height="25" viewBox="0 0 25 25" fill="none" xmlns="http://www.w3.org/2000/svg">
<rect width="25" height="25" rx="4" fill="#FEAD06" fill-opacity="0.2"/>
<g clip-path="url(#clip0_38_318)">
<path d="M13 12.6364C12.5027 12.6364 12.0258 12.4448 11.6742 12.1039C11.3225 11.7629 11.125 11.3004 11.125 10.8182C11.125 10.336 11.3225 9.87353 11.6742 9.53256C12.0258 9.19158 12.5027 9.00002 13 9.00002C13.4973 9.00002 13.9742 9.19158 14.3258 9.53256C14.6775 9.87353 14.875 10.336 14.875 10.8182C14.875 11.057 14.8265 11.2934 14.7323 11.514C14.638 11.7346 14.4999 11.935 14.3258 12.1039C14.1517 12.2727 13.945 12.4066 13.7175 12.498C13.49 12.5894 13.2462 12.6364 13 12.6364ZM13 5.72729C11.6076 5.72729 10.2723 6.26366 9.28769 7.21839C8.30312 8.17312 7.75 9.46801 7.75 10.8182C7.75 14.6364 13 20.2727 13 20.2727C13 20.2727 18.25 14.6364 18.25 10.8182C18.25 9.46801 17.6969 8.17312 16.7123 7.21839C15.7277 6.26366 14.3924 5.72729 13 5.72729Z" fill="#FEAD06"/>
</g>
<defs>
<clipPath id="clip0_38_318">
<rect width="12" height="16" fill="white" transform="translate(7 5)"/>
</clipPath>
</defs>
</svg>
