<svg width="28" height="31" viewBox="0 0 28 31" fill="none" xmlns="http://www.w3.org/2000/svg">
<path d="M13.9588 28.8878L14 28.9474L14.0411 28.8878L14.5212 28.1931L14.5212 28.1931C14.702 27.931 16.9162 24.7113 19.0854 20.9369C20.17 19.0497 21.2438 17.0229 22.0467 15.1572C22.8487 13.2934 23.3833 11.5838 23.3833 10.3333C23.3833 5.15955 19.1737 0.95 14 0.95C8.82618 0.95 4.61663 5.15955 4.61663 10.3333C4.61663 11.5838 5.15118 13.2934 5.95324 15.1572C6.75609 17.0229 7.82993 19.0497 8.91449 20.9369C11.0837 24.7113 13.2979 27.931 13.4787 28.1931L13.4787 28.1931L13.9588 28.8878ZM5.88329 10.3333C5.88329 5.85761 9.52424 2.21667 14 2.21667C18.4757 2.21667 22.1166 5.85761 22.1166 10.3333C22.1166 11.3127 21.7232 12.6586 21.0999 14.174C20.4772 15.6877 19.6277 17.3646 18.7209 19.0037C16.9346 22.2328 14.9277 25.3117 14 26.7015C13.0722 25.3117 11.0653 22.2328 9.27897 19.0037C8.37217 17.3646 7.52269 15.6877 6.90005 14.174C6.27672 12.6586 5.88329 11.3127 5.88329 10.3333Z" fill="#FEAD06" stroke="#FEAD06" stroke-width="0.1"/>
<path d="M9.86663 10.3333C9.86663 12.6126 11.7213 14.4667 14 14.4667C16.2787 14.4667 18.1333 12.6126 18.1333 10.3333C18.1333 8.05405 16.2787 6.2 14 6.2C11.7213 6.2 9.86663 8.05405 9.86663 10.3333ZM11.1333 10.3333C11.1333 8.7527 12.4193 7.46667 14 7.46667C15.5806 7.46667 16.8666 8.7527 16.8666 10.3333C16.8666 11.914 15.5806 13.2 14 13.2C12.4193 13.2 11.1333 11.914 11.1333 10.3333Z" fill="#FEAD06" stroke="#FEAD06" stroke-width="0.1"/>
</svg>
