<svg width="112" height="77" viewBox="0 0 112 77" fill="none" xmlns="http://www.w3.org/2000/svg">
<path d="M3.15 76V41H11.9C13.3333 41 14.6 41.25 15.7 41.75C16.8333 42.2167 17.7833 42.8667 18.55 43.7C19.3167 44.5 19.8833 45.45 20.25 46.55C20.65 47.6167 20.85 48.7667 20.85 50V67C20.85 68.2333 20.65 69.4 20.25 70.5C19.8833 71.5667 19.3167 72.5167 18.55 73.35C17.7833 74.15 16.8333 74.8 15.7 75.3C14.6 75.7667 13.3333 76 11.9 76H9.5L7.75 71.95H11.9C13.4333 71.95 14.6 71.4667 15.4 70.5C16.2 69.5 16.6 68.3333 16.6 67V50C16.6 48.6667 16.2 47.5167 15.4 46.55C14.6 45.55 13.4333 45.05 11.9 45.05H7.4V76H3.15ZM26.734 65.15V61.25H37.334V65.15H26.734ZM50.0988 45.05V76H45.8488V46.75L50.0988 45.05H38.9988V41H56.9488V45.05H50.0988ZM66.3676 72.4C67.8009 72.4 68.8842 72.05 69.6176 71.35C70.3842 70.6167 70.7676 69.7667 70.7676 68.8V60L74.7176 58.25V68.8C74.7176 69.8 74.5342 70.7667 74.1676 71.7C73.8009 72.6 73.2676 73.3833 72.5676 74.05C71.8676 74.7167 70.9842 75.25 69.9176 75.65C68.8842 76.05 67.7009 76.25 66.3676 76.25C65.0009 76.25 63.8009 76.05 62.7676 75.65C61.7342 75.25 60.8676 74.7167 60.1676 74.05C59.4676 73.3833 58.9342 72.6 58.5676 71.7C58.2009 70.7667 58.0176 69.8 58.0176 68.8V58.2C58.0176 57.2 58.2009 56.25 58.5676 55.35C58.9342 54.4167 59.4676 53.6167 60.1676 52.95C60.8676 52.2833 61.7342 51.75 62.7676 51.35C63.8009 50.95 65.0009 50.75 66.3676 50.75C67.7009 50.75 68.8842 50.95 69.9176 51.35C70.9842 51.75 71.8676 52.2833 72.5676 52.95C73.2676 53.6167 73.8009 54.4167 74.1676 55.35C74.5342 56.25 74.7176 57.2 74.7176 58.2H70.7676C70.7676 57.2333 70.4009 56.4 69.6676 55.7C68.9342 54.9667 67.8342 54.6 66.3676 54.6C64.9009 54.6 63.8009 54.9667 63.0676 55.7C62.3342 56.4 61.9676 57.2333 61.9676 58.2V68.8C61.9676 69.7667 62.3342 70.6167 63.0676 71.35C63.8009 72.05 64.9009 72.4 66.3676 72.4ZM80.1961 58.85C80.1961 57.7833 80.3628 56.7833 80.6961 55.85C81.0628 54.8833 81.5794 54.05 82.2461 53.35C82.9461 52.6167 83.7961 52.05 84.7961 51.65C85.8294 51.2167 87.0294 51 88.3961 51H90.4961V54.85H88.3961C86.9961 54.85 85.9294 55.25 85.1961 56.05C84.4961 56.8167 84.1461 57.75 84.1461 58.85V76H80.1961V58.85ZM92.7227 69.05C92.7227 67.8167 92.9393 66.75 93.3727 65.85C93.806 64.95 94.3727 64.2 95.0727 63.6C95.806 62.9667 96.6393 62.4667 97.5727 62.1C98.506 61.7333 99.4727 61.4667 100.473 61.3L103.423 60.85L105.023 64.45L101.073 65.15C99.906 65.35 98.8727 65.75 97.9727 66.35C97.106 66.9167 96.6727 67.8333 96.6727 69.1C96.6727 69.5667 96.706 70 96.7727 70.4C96.8727 70.7667 97.056 71.1 97.3227 71.4C97.6227 71.6667 98.0227 71.8833 98.5227 72.05C99.0227 72.2167 99.6893 72.3 100.523 72.3C102.023 72.3 103.139 71.9 103.873 71.1C104.639 70.3 105.023 69.3167 105.023 68.15V58.4C105.023 57.4333 104.689 56.6 104.023 55.9C103.356 55.2 102.423 54.85 101.223 54.85H94.3727V51H101.223C102.456 51 103.556 51.2 104.523 51.6C105.489 51.9667 106.289 52.5 106.923 53.2C107.589 53.8667 108.089 54.65 108.423 55.55C108.756 56.45 108.923 57.4 108.923 58.4V76H106.223L105.773 74.3C104.473 75.6 102.656 76.25 100.323 76.25C98.856 76.25 97.6393 76.0833 96.6727 75.75C95.706 75.3833 94.9227 74.8833 94.3227 74.25C93.756 73.6167 93.3393 72.8667 93.0727 72C92.8393 71.1 92.7227 70.1167 92.7227 69.05Z" fill="#2D2D2D"/>
<path fill-rule="evenodd" clip-rule="evenodd" d="M78.8862 43.9972C79.1435 43.9972 79.3982 44.0527 79.6359 44.1607C79.8735 44.2686 80.0895 44.4268 80.2714 44.6263C80.4533 44.8257 80.5975 45.0625 80.696 45.3231C80.7944 45.5837 80.8451 45.863 80.8451 46.1451C80.8451 46.5699 80.7302 46.9851 80.515 47.3384C80.2997 47.6916 79.9938 47.9669 79.6359 48.1294C79.2779 48.292 78.8841 48.3345 78.5041 48.2517C78.1241 48.1688 77.775 47.9642 77.5011 47.6638C77.2271 47.3635 77.0406 46.9807 76.965 46.5641C76.8894 46.1474 76.9282 45.7156 77.0765 45.3231C77.2247 44.9306 77.4758 44.5952 77.7979 44.3592C78.1201 44.1232 78.4988 43.9972 78.8862 43.9972Z" fill="#F9AB00" stroke="#1B1918" stroke-width="0.5" stroke-linecap="round"/>
<path fill-rule="evenodd" clip-rule="evenodd" d="M76.7193 36.5136L76.6752 42.005L81.0332 46.2121L84.7308 44.4849L76.7193 36.5136Z" fill="white" stroke="#1B1918" stroke-width="0.5" stroke-linecap="round"/>
<path fill-rule="evenodd" clip-rule="evenodd" d="M92.4109 43.3625C94.7144 41.5173 99.0944 32.9285 96.9445 24.277C96.5079 19.3526 100.191 18.3892 102.56 19.9918C105.615 22.0579 105.497 32.89 103.872 36.3074C99.9542 44.5485 96.8637 44.8215 93.719 49.0067L80.7028 49.3195C78.6194 49.2309 77.5263 44.345 81.7372 44.6256C81.5903 44.4117 81.4539 44.2021 81.3241 43.9954L79.9046 40.538L79.2218 41.2288L78.8239 39.7258L78.1901 39.2494L78.1532 48.4806C78.1704 48.9808 77.98 49.2398 77.6157 49.2973H72.2518C69.6733 49.3637 69.24 43.7835 73.3521 44.1163L73.1077 39.4425L70.2647 37.4775L70.0259 47.8995C70.0373 48.4227 69.8868 48.7112 69.4452 48.7216H63.8006C61.2222 48.7881 60.7889 43.2078 64.901 43.5406C64.5437 37.5426 63.6048 30.1658 65.0537 28.4508L70.2711 28.529L70.2634 29.1156L73.1306 26.3829L80.2357 25.6666C86.1375 29.4791 91.2147 34.2247 92.4109 43.3625Z" fill="#F9AB00" stroke="#1B1918" stroke-width="0.5" stroke-linecap="round"/>
<path fill-rule="evenodd" clip-rule="evenodd" d="M59.7879 13.2311C57.2308 9.4022 57.8405 5.42846 60.4482 1.36352C61.5636 4.16018 62.9712 6.47901 65.0259 7.74019C68.4219 6.17742 72.223 6.04086 76.5581 7.78446C79.7352 6.04579 81.035 3.82721 82.1042 1C86.0362 6.76369 85.7724 11.2903 82.8965 15.0467C84.9211 17.3055 85.3184 19.8581 85.0532 22.5304C84.6383 20.9255 84.0874 20.8024 82.8508 20.0242C82.9248 20.0705 82.9778 20.1034 83.0601 20.1539C83.8623 22.2467 83.4014 23.5012 82.7644 25.4972C82.2168 24.3286 81.5955 23.5808 80.8717 23.416C80.9628 23.4399 81.018 23.4576 81.0809 23.4808C81.3793 24.466 80.5171 26.1822 79.7474 25.5181C79.4888 27.0847 78.7428 27.2744 78.3369 26.5335C77.6625 27.9251 76.9206 28.2063 76.3844 27.8239C75.6227 29.0382 74.91 28.8459 74.8193 28.3561C74.2196 28.8228 73.7896 29.4923 73.609 28.8208C72.566 30.213 71.4778 30.5651 70.4124 29.191C70.6375 30.3389 69.1475 29.6471 68.8973 29.0628C68.6646 30.4513 66.8382 29.3812 66.2516 28.6978C66.4468 30.2832 64.6035 28.5093 63.6982 27.5196C63.9497 28.1008 62.491 27.5041 62.301 26.7296C60.9685 26.2614 60.9415 25.154 60.3161 23.5488C59.3824 24.0602 58.7848 25.0596 58.3795 26.3386C57.8248 23.8151 57.6592 21.1898 58.3838 18.9239C58.526 18.8294 58.6182 18.7714 58.7756 18.6778C57.543 19.3863 56.8389 20.3605 56.0025 21.8661C56.07 18.1518 57.0206 15.0558 59.7879 13.2311Z" fill="#F9AB00" stroke="#1B1918" stroke-width="0.5" stroke-linecap="round"/>
<path d="M59.3947 3.22473C60.9734 4.41737 61.9516 6.71814 62.1216 10.509" stroke="#1B1918" stroke-width="0.5" stroke-linecap="round"/>
<path d="M83.5244 3.37067C81.6349 5.43383 80.8398 8.25397 80.8284 11.6161" stroke="#1B1918" stroke-width="0.5" stroke-linecap="round"/>
<path d="M64.4675 8.29031C65.4959 6.9145 72.5482 5.09692 77.34 8.31182" stroke="#1B1918" stroke-width="0.5" stroke-linecap="round"/>
<path fill-rule="evenodd" clip-rule="evenodd" d="M67.3839 6.90643C66.7956 8.13665 66.7103 10.2524 66.8265 12.723C65.8054 11.4182 65.2251 9.78632 65.3191 7.65468C65.7316 7.40537 66.4433 7.1559 67.3839 6.90643Z" fill="#6E6F70" stroke="#1B1918" stroke-width="0.5" stroke-linecap="round"/>
<path fill-rule="evenodd" clip-rule="evenodd" d="M71.7409 6.57693C71.3235 7.92992 71.1318 9.70981 70.6333 12.3271C69.8984 10.6015 69.1521 8.6083 68.3877 6.72021C69.507 6.53341 70.6245 6.50144 71.7409 6.57693Z" fill="#6E6F70" stroke="#1B1918" stroke-width="0.5" stroke-linecap="round"/>
<path fill-rule="evenodd" clip-rule="evenodd" d="M73.1057 6.7641C73.694 7.99432 74.5439 9.58807 74.4277 12.0587C75.4488 10.7539 76.0162 9.67235 75.9222 7.54072C75.0478 7.12847 74.1098 6.8677 73.1057 6.7641Z" fill="#6E6F70" stroke="#1B1918" stroke-width="0.5" stroke-linecap="round"/>
<path d="M76.7915 12.9441L73.2445 18.7642L79.3446 13.564" stroke="#1B1918" stroke-width="0.5" stroke-linecap="round"/>
<path fill-rule="evenodd" clip-rule="evenodd" d="M78.901 17.9669C78.901 18.7244 78.8167 19.1109 78.1239 19.1109L73.2445 18.764L78.8564 13.9991L78.901 17.9669Z" fill="#1B1918"/>
<path fill-rule="evenodd" clip-rule="evenodd" d="M76.7401 16.6264C76.8491 16.817 76.9115 17.038 76.9115 17.2736C76.9115 17.9915 76.3331 18.5733 75.6196 18.5733C75.1916 18.5733 74.8124 18.364 74.5773 18.0415L76.7401 16.6264Z" fill="white"/>
<path fill-rule="evenodd" clip-rule="evenodd" d="M75.3567 17.3453L75.2017 18.0186L75.0466 18.6919H75.3567H75.6669L75.5118 18.0186L75.3567 17.3453Z" fill="#1B1918"/>
<path fill-rule="evenodd" clip-rule="evenodd" d="M70.4569 22.3606C70.9071 21.7295 71.9848 21.4527 72.3359 20.6666H68.5778L70.4569 22.3606Z" fill="#1B1918"/>
<path d="M64.9435 13.1491L68.1028 18.7426L61.5458 14.1394" stroke="#1B1918" stroke-width="0.5" stroke-linecap="round"/>
<path fill-rule="evenodd" clip-rule="evenodd" d="M62.2974 17.2682C62.2973 19.3509 63.3225 19.4897 64.0124 19.4245L68.1027 18.7424L62.0723 14.5267L62.2974 17.2682Z" fill="#1B1918"/>
<path fill-rule="evenodd" clip-rule="evenodd" d="M64.4234 16.9433C64.3326 17.1433 64.291 17.3692 64.3129 17.6038C64.3797 18.3185 65.0096 18.8434 65.72 18.7762C66.1461 18.7359 66.5042 18.4918 66.7083 18.1485L64.4234 16.9433Z" fill="white"/>
<path fill-rule="evenodd" clip-rule="evenodd" d="M65.2247 17.5284L65.4417 18.1841L65.6587 18.8399L65.3499 18.8691L65.0411 18.8983L65.1329 18.2133L65.2247 17.5284Z" fill="#1B1918"/>
<path d="M76.2755 21.3866C74.6985 23.187 72.2183 24.2806 69.0564 24.8408" stroke="#1B1918" stroke-width="0.5" stroke-linecap="round"/>
<path fill-rule="evenodd" clip-rule="evenodd" d="M73.0775 25.5328C73.3619 24.503 74.0512 23.7047 74.5703 22.8522C73.3903 23.5933 72.0943 24.1232 70.7047 24.4831L73.0775 25.5328Z" fill="#E30016" stroke="#1B1918" stroke-width="0.5" stroke-linecap="round"/>
<path fill-rule="evenodd" clip-rule="evenodd" d="M74.7242 24.1891L74.9841 22.565L74.0018 23.1881L74.7242 24.1891Z" fill="white" stroke="#1B1918" stroke-width="0.5" stroke-linecap="round"/>
<path d="M63.3254 21.3089L51.7922 20.1132" stroke="#1B1918" stroke-width="0.5" stroke-linecap="round"/>
<path d="M62.6652 22.46L51 23.1243" stroke="#1B1918" stroke-width="0.5" stroke-linecap="round"/>
<path d="M62.5772 23.6558L53.2451 26.1357" stroke="#1B1918" stroke-width="0.5" stroke-linecap="round"/>
<path d="M78.9076 20.4769L89.3112 18.5001" stroke="#1B1918" stroke-width="0.5" stroke-linecap="round"/>
<path d="M79.3906 21.663L90.0873 21.973" stroke="#1B1918" stroke-width="0.5" stroke-linecap="round"/>
<path d="M79.8307 22.8143L89.0308 24.4529" stroke="#1B1918" stroke-width="0.5" stroke-linecap="round"/>
<path fill-rule="evenodd" clip-rule="evenodd" d="M81.7373 44.6261C76.2422 37.8209 82.7205 32.6542 84.9947 38.3596L81.7373 44.6261Z" fill="#F9AB00"/>
<path d="M81.7373 44.6261C76.2422 37.8209 82.7205 32.6542 84.9947 38.3596" stroke="#1B1918" stroke-width="0.5" stroke-linecap="round"/>
<path d="M78.1531 48.4806L78.1899 34.6884" stroke="#1B1918" stroke-width="0.5" stroke-linecap="round"/>
<path d="M73.2301 41.7793L73.3728 44.5814" stroke="#1B1918" stroke-width="0.5" stroke-linecap="round"/>
<path d="M64.7422 41.1931L64.9372 43.9813" stroke="#1B1918" stroke-width="0.5" stroke-linecap="round"/>
</svg>
