<svg width="27" height="27" viewBox="0 0 27 27" fill="none" xmlns="http://www.w3.org/2000/svg">
<path d="M23.4674 4.36133H3.53436C2.83531 4.36212 2.16511 4.64018 1.6708 5.13448C1.17649 5.62879 0.89844 6.29899 0.897644 6.99805V20.0023C0.89844 20.7014 1.17649 21.3716 1.6708 21.8659C2.16511 22.3602 2.83531 22.6383 3.53436 22.6391H23.4673C24.1664 22.6383 24.8366 22.3602 25.3309 21.8659C25.8252 21.3716 26.1032 20.7014 26.104 20.0023V6.99805C26.1033 6.29899 25.8252 5.62878 25.3309 5.13447C24.8366 4.64016 24.1664 4.36211 23.4674 4.36133ZM18.7793 13.4966L25.0494 8.57554V19.5832L18.7793 13.4966ZM3.53436 5.41602H23.4673C23.8868 5.41649 24.2889 5.58332 24.5855 5.87991C24.8821 6.17649 25.0489 6.57861 25.0494 6.99805V7.23482L14.9027 15.1987C14.5318 15.4883 14.0745 15.6454 13.6039 15.645C13.1333 15.6446 12.6763 15.4868 12.3058 15.1966L1.95233 7.23282V6.99805C1.95281 6.57861 2.11964 6.17649 2.41622 5.87991C2.71281 5.58332 3.11493 5.41649 3.53436 5.41602ZM8.40902 13.5297L1.95233 19.6045V8.56341L8.40902 13.5297ZM23.4674 21.5844H3.53436C3.26428 21.5842 2.99873 21.5149 2.76299 21.3831C2.52726 21.2513 2.32919 21.0613 2.18763 20.8313L9.25583 14.1815L11.6596 16.0304C12.2155 16.4646 12.9007 16.7004 13.6061 16.7002C14.3115 16.7 14.9965 16.4639 15.5522 16.0294L17.9421 14.1541L24.8168 20.8271C24.6755 21.0583 24.4772 21.2493 24.2409 21.3819C24.0047 21.5145 23.7383 21.5842 23.4674 21.5844Z" fill="#FEAD06"/>
</svg>
