<svg width="27" height="27" viewBox="0 0 27 27" fill="none" xmlns="http://www.w3.org/2000/svg">
<g clip-path="url(#clip0_40_3638)">
<path d="M19.786 17.6597C19.5508 17.4237 19.2714 17.2365 18.9637 17.1087C18.656 16.981 18.3261 16.9152 17.993 16.9152C17.6598 16.9152 17.33 16.981 17.0223 17.1087C16.7146 17.2365 16.4352 17.4237 16.2 17.6597L14.9766 18.8832C13.5991 18.0089 12.3228 16.9845 11.1713 15.8288C10.018 14.675 8.9938 13.3991 8.11689 12.0235L9.34033 10.8C9.57631 10.5649 9.76354 10.2854 9.8913 9.97775C10.0191 9.67008 10.0848 9.34021 10.0848 9.00706C10.0848 8.67391 10.0191 8.34404 9.8913 8.03636C9.76354 7.72868 9.57631 7.44925 9.34033 7.21409L6.95252 4.83471C6.72067 4.59795 6.4436 4.41021 6.13776 4.28266C5.83193 4.15511 5.50357 4.09034 5.1722 4.09221C4.83848 4.0914 4.5079 4.15658 4.19947 4.284C3.89103 4.41143 3.61084 4.59859 3.37502 4.83471L2.22752 5.97378C1.68057 6.56184 1.27237 7.26501 1.0329 8.03157C0.793443 8.79814 0.728813 9.60863 0.843765 10.4035C1.11377 13.5675 3.18939 17.3728 6.3872 20.5791C9.58502 23.7853 13.4325 25.8525 16.5966 26.1563C16.8327 26.1689 17.0692 26.1689 17.3053 26.1563C17.9864 26.1849 18.6664 26.0772 19.3053 25.8396C19.9443 25.602 20.5293 25.2392 21.0263 24.7725L22.1653 23.625C22.4015 23.3892 22.5886 23.109 22.716 22.8006C22.8435 22.4921 22.9086 22.1616 22.9078 21.8278C22.9097 21.4965 22.8449 21.1681 22.7174 20.8623C22.5898 20.5564 22.4021 20.2794 22.1653 20.0475L19.786 17.6597ZM20.9756 22.4353L19.8281 23.5744C19.4039 23.928 18.9086 24.1863 18.3758 24.3319C17.843 24.4775 17.2852 24.5069 16.74 24.4182C13.9978 24.1819 10.5047 22.2413 7.61908 19.3557C4.73345 16.47 2.79283 13.0022 2.53126 10.26C2.44028 9.71489 2.46859 9.15651 2.61425 8.62337C2.75992 8.09024 3.01947 7.59503 3.37502 7.1719L4.5647 6.0244C4.64354 5.9462 4.73704 5.88433 4.83984 5.84234C4.94264 5.80035 5.05272 5.77907 5.16376 5.77971C5.27481 5.77907 5.38489 5.80035 5.48769 5.84234C5.59049 5.88433 5.68399 5.9462 5.76283 6.0244L8.15064 8.43753C8.30779 8.59561 8.396 8.80946 8.396 9.03237C8.396 9.25528 8.30779 9.46913 8.15064 9.62721L6.46314 11.3147C6.33109 11.4461 6.24624 11.6175 6.22182 11.8022C6.1974 11.9869 6.23478 12.1744 6.32814 12.3357C7.33844 14.0556 8.56638 15.638 9.98158 17.0438C11.3873 18.459 12.9698 19.6869 14.6897 20.6972C14.8509 20.7906 15.0385 20.828 15.2232 20.8035C15.4078 20.7791 15.5792 20.6943 15.7106 20.5622L17.3981 18.8747C17.5562 18.7176 17.7701 18.6294 17.993 18.6294C18.2159 18.6294 18.4297 18.7176 18.5878 18.8747L20.9756 21.2625C21.0538 21.3414 21.1157 21.4349 21.1577 21.5377C21.1997 21.6405 21.221 21.7505 21.2203 21.8616C21.215 22.0771 21.1275 22.2824 20.9756 22.4353ZM22.4438 4.54784C21.2712 3.37078 19.8772 2.43748 18.3422 1.80175C16.8071 1.16602 15.1615 0.840441 13.5 0.843775C13.2762 0.843775 13.0616 0.93267 12.9034 1.0909C12.7452 1.24914 12.6563 1.46375 12.6563 1.68753C12.6563 1.9113 12.7452 2.12591 12.9034 2.28415C13.0616 2.44238 13.2762 2.53128 13.5 2.53128C14.9483 2.53122 16.3822 2.81798 17.7191 3.37501C19.056 3.93204 20.2693 4.7483 21.2891 5.77669C22.3089 6.80509 23.1149 8.02525 23.6606 9.36677C24.2064 10.7083 24.481 12.1446 24.4688 13.5928C24.4688 13.8166 24.5577 14.0312 24.7159 14.1895C24.8741 14.3477 25.0887 14.4366 25.3125 14.4366C25.5363 14.4366 25.7509 14.3477 25.9091 14.1895C26.0674 14.0312 26.1563 13.8166 26.1563 13.5928C26.1724 11.9137 25.8523 10.2484 25.2147 8.69492C24.5771 7.14149 23.6349 5.73142 22.4438 4.54784Z" fill="#FEAD06"/>
<path d="M17.6428 9.37408C18.1217 9.85003 18.5005 10.4169 18.757 11.0415C19.0134 11.666 19.1424 12.3355 19.1363 13.0106C19.1363 13.2344 19.2252 13.449 19.3834 13.6073C19.5416 13.7655 19.7562 13.8544 19.98 13.8544C20.2038 13.8544 20.4184 13.7655 20.5766 13.6073C20.7349 13.449 20.8238 13.2344 20.8238 13.0106C20.8349 12.1171 20.6686 11.2303 20.3344 10.4016C20.0002 9.5729 19.5047 8.8188 18.8768 8.18304C18.2489 7.54728 17.501 7.04252 16.6765 6.69803C15.852 6.35355 14.9673 6.1762 14.0738 6.17627C13.85 6.17627 13.6354 6.26516 13.4771 6.4234C13.3189 6.58163 13.23 6.79624 13.23 7.02002C13.23 7.2438 13.3189 7.45841 13.4771 7.61664C13.6354 7.77487 13.85 7.86377 14.0738 7.86377C14.7387 7.86878 15.3961 8.00474 16.0085 8.26388C16.6209 8.52302 17.1763 8.90027 17.6428 9.37408Z" fill="#FEAD06"/>
</g>
<defs>
<clipPath id="clip0_40_3638">
<rect width="27" height="27" fill="white"/>
</clipPath>
</defs>
</svg>
