<svg width="28" height="27" viewBox="0 0 28 27" fill="none" xmlns="http://www.w3.org/2000/svg">
<path d="M21.6472 25.5426L23.6989 23.5183C23.8926 23.3291 24.0431 23.1013 24.1403 22.8501C24.2374 22.5989 24.279 22.3301 24.2623 22.0618C24.2456 21.7934 24.171 21.5317 24.0434 21.2941C23.9158 21.0565 23.7382 20.8486 23.5225 20.6843L20.334 18.2551C19.9968 17.9961 19.5816 17.8554 19.1542 17.8554C18.7269 17.8554 18.3117 17.9961 17.9745 18.2551L17.2522 18.826C16.8847 19.1122 16.4236 19.2554 15.9562 19.2286C15.4888 19.2017 15.0476 19.0066 14.7162 18.6802L9.01639 13.0527C8.68527 12.727 8.48689 12.2927 8.4589 11.8322C8.43091 11.3717 8.57526 10.9171 8.86455 10.5547L9.42674 9.85431C9.691 9.52312 9.83467 9.11387 9.83467 8.69237C9.83467 8.27087 9.691 7.86162 9.42674 7.53042L6.9646 4.38468C6.79844 4.17131 6.58785 3.99557 6.34702 3.8693C6.10619 3.74302 5.84073 3.66915 5.56851 3.65265C5.2963 3.63615 5.02367 3.67742 4.76899 3.77366C4.5143 3.86991 4.28349 4.01889 4.09211 4.21059L2.04032 6.23488C0.657423 7.6033 0.661526 11.4818 8.48703 19.2025C16.3125 26.9231 20.3545 26.8138 21.6472 25.5426Z" stroke="#2D2D2D" stroke-linecap="round" stroke-linejoin="round"/>
<path d="M15.6357 12.1215L27.1011 0.809753" stroke="#2D2D2D" stroke-linecap="round" stroke-linejoin="round"/>
<path d="M15.6357 6.47369V12.1215H21.3602" stroke="#2D2D2D" stroke-linecap="round" stroke-linejoin="round"/>
</svg>
