<svg width="57" height="57" viewBox="0 0 57 57" fill="none" xmlns="http://www.w3.org/2000/svg">
<rect width="57" height="57" rx="4" fill="#FEAD06" fill-opacity="0.2"/>
<path d="M22.0239 21.6041L18.3472 27.1055C18.2546 27.2438 18.2014 27.4048 18.1931 27.571C18.1849 27.7373 18.222 27.9027 18.3004 28.0495C18.3788 28.1964 18.4957 28.3192 18.6384 28.4048C18.7812 28.4904 18.9446 28.5357 19.111 28.5357H22.7878C23.0315 28.5357 23.2653 28.4388 23.4376 28.2664L25.9259 25.7782H28.0851L25.6658 37.0704L19.6681 39.6441C19.5033 39.7147 19.3628 39.8319 19.2639 39.9814C19.1649 40.1308 19.1118 40.3059 19.111 40.4851V45.0811C19.1111 45.2349 19.1497 45.3862 19.2234 45.5212C19.2971 45.6562 19.4034 45.7705 19.5328 45.8538C19.6621 45.937 19.8102 45.9864 19.9636 45.9976C20.117 46.0087 20.2708 45.9812 20.4108 45.9175L30.5218 41.3216C30.643 41.2666 30.7509 41.1859 30.8378 41.0851C30.9248 40.9843 30.9888 40.8659 31.0255 40.7379L32.5413 35.4296L37.6887 38.371L40.3249 44.5222C40.3956 44.6881 40.5136 44.8296 40.6641 44.929C40.8147 45.0284 40.9911 45.0813 41.1715 45.0811H45.7674C45.9178 45.0812 46.0658 45.0444 46.1986 44.974C46.3314 44.9036 46.445 44.8017 46.5293 44.6772C46.6135 44.5528 46.666 44.4095 46.6821 44.2601C46.6981 44.1106 46.6773 43.9595 46.6214 43.8199L42.9446 34.6281C42.8679 34.4342 42.7276 34.2721 42.5466 34.1685L36.6546 30.8015L37.3523 25.917L41.9399 26.6808C42.1555 26.7167 42.3767 26.6747 42.5641 26.5622L47.16 23.8047C47.2954 23.7233 47.4076 23.6084 47.4857 23.4711C47.5638 23.3337 47.6051 23.1786 47.6058 23.0206V19.3439C47.6058 19.1812 47.5626 19.0214 47.4806 18.8809C47.3986 18.7403 47.2808 18.6241 47.1392 18.544C46.9976 18.4639 46.8373 18.4228 46.6746 18.4249C46.5119 18.4271 46.3527 18.4723 46.2132 18.5561L41.9225 21.1298L34.8981 19.7253C35.6855 19.2856 36.307 18.5999 36.6676 17.7732C37.0281 16.9465 37.1078 16.0244 36.8943 15.1482C36.6808 14.2719 36.186 13.4898 35.4857 12.9216C34.7853 12.3533 33.918 12.0303 33.0166 12.002C32.1151 11.9737 31.2293 12.2417 30.4946 12.7648C29.76 13.288 29.2171 14.0375 28.9491 14.8987C28.681 15.7598 28.7027 16.6851 29.0106 17.5327C29.3186 18.3804 29.8959 19.1038 30.6542 19.592L24.7181 20.263C24.1976 20.2725 23.6858 20.3977 23.2197 20.6297C22.7537 20.8617 22.3452 21.1946 22.0239 21.6041ZM30.6009 16.1267C30.6009 15.6722 30.7356 15.2279 30.9881 14.85C31.2406 14.4721 31.5995 14.1776 32.0194 14.0037C32.4393 13.8297 32.9014 13.7842 33.3471 13.8729C33.7929 13.9616 34.2024 14.1804 34.5237 14.5018C34.8451 14.8232 35.064 15.2326 35.1526 15.6784C35.2413 16.1242 35.1958 16.5862 35.0219 17.0061C34.8479 17.426 34.5534 17.7849 34.1755 18.0374C33.7976 18.2899 33.3533 18.4247 32.8988 18.4247C32.2894 18.4247 31.7049 18.1826 31.2739 17.7516C30.843 17.3207 30.6009 16.7362 30.6009 16.1267ZM32.8593 21.1923L41.9069 23.0022C42.1312 23.0472 42.3642 23.0069 42.5604 22.8892L45.7674 20.9671V22.5003L41.9069 24.8158L36.7254 23.9527C36.6046 23.9318 36.4808 23.9356 36.3616 23.9639C36.2423 23.9921 36.13 24.0443 36.0314 24.1172C35.9325 24.1894 35.849 24.2807 35.7859 24.3857C35.7227 24.4907 35.6812 24.6072 35.6637 24.7284L34.7446 31.1628C34.7185 31.3452 34.7478 31.5313 34.8288 31.6968C34.9097 31.8624 35.0386 31.9997 35.1986 32.0911L41.3553 35.6135L44.4098 43.2427H41.7772L39.2587 37.3654C39.1799 37.1818 39.0434 37.0288 38.8699 36.9297L32.4356 33.253C32.3146 33.1838 32.1794 33.143 32.0404 33.1337C31.9013 33.1244 31.7619 33.1469 31.6328 33.1994C31.5037 33.2519 31.3882 33.3331 31.2951 33.4368C31.202 33.5405 31.1337 33.6641 31.0954 33.7981L29.3737 39.8242L20.9494 43.6536V41.0909L26.8267 38.5723C26.9618 38.5144 27.0811 38.4249 27.1745 38.3113C27.2679 38.1978 27.3327 38.0635 27.3635 37.9197L30.121 25.0511C30.1497 24.9171 30.148 24.7784 30.1161 24.6451C30.0842 24.5119 30.023 24.3874 29.9368 24.2809C29.8506 24.1743 29.7417 24.0884 29.6181 24.0294C29.4944 23.9704 29.3591 23.9398 29.2221 23.9398H25.5453C25.3016 23.9398 25.0678 24.0367 24.8955 24.2091L22.4072 26.6973H20.8308L23.5737 22.5904C23.9207 22.2819 24.366 22.1066 24.8302 22.0959L32.8593 21.1923Z" fill="#FEAD06"/>
<path d="M17.2727 21.1821H9V23.0205H17.2727V21.1821Z" fill="#FEAD06"/>
<path d="M23.707 33.1316H16.3535V34.97H23.707V33.1316Z" fill="#FEAD06"/>
<path d="M14.5151 39.5662H9V41.4045H14.5151V39.5662Z" fill="#FEAD06"/>
<path d="M12.6767 29.4551H9V31.2935H12.6767V29.4551Z" fill="#FEAD06"/>
</svg>
