<svg width="57" height="57" viewBox="0 0 57 57" fill="none" xmlns="http://www.w3.org/2000/svg">
<rect width="57" height="57" rx="4" fill="#FEAD06" fill-opacity="0.2"/>
<g clip-path="url(#clip0_43_147)">
<path d="M46.4147 36.294C46.483 36.4075 46.5273 36.5338 46.545 36.665C46.5627 36.7962 46.5534 36.9296 46.5176 37.0571C46.4453 37.3141 46.268 37.5318 46.0306 37.6544L31.0384 44.432C30.5311 44.6617 29.9805 44.7806 29.4235 44.781L46.4147 36.294ZM46.4147 36.294C45.264 34.3928 43.0984 33.386 40.9232 33.7279L46.4147 36.294ZM13.6162 42.5221H13.6164C14.3676 42.5212 15.0879 42.2228 15.6191 41.6921C16.1138 41.1981 16.4069 40.5403 16.4455 39.8462C17.5511 39.9276 18.6439 40.2049 19.64 40.6824L27.6633 44.5296L27.7282 44.3943L27.6633 44.5296C28.2206 44.7968 28.8215 44.931 29.4235 44.931H29.4236C30.0019 44.9306 30.5735 44.8071 31.1003 44.5686L46.0924 37.7911L46.0925 37.7913L46.0995 37.7877C46.3739 37.646 46.5784 37.3946 46.662 37.0978L46.6621 37.0976C46.7033 36.9505 46.7141 36.7964 46.6937 36.6449C46.6732 36.4935 46.6221 36.3477 46.5433 36.2167L46.5431 36.2163C45.3614 34.2641 43.1374 33.2292 40.9027 33.5793L33.7371 34.4288C33.8084 34.1765 33.845 33.9153 33.8455 33.6524V33.6519C33.8447 32.8835 33.5386 32.1468 32.9946 31.6035C32.4506 31.0602 31.7131 30.7547 30.9438 30.7538H30.9436H27.072C26.3379 30.0245 25.4679 29.4455 24.511 29.0496C23.541 28.6484 22.5011 28.4433 21.4512 28.4461H16.4498V28.2909V28.2907C16.4491 27.5403 16.1504 26.8208 15.6191 26.2902C15.0879 25.7596 14.3676 25.4611 13.6164 25.4603H13.6162H11.4043C11.2295 25.4603 11.0618 25.5296 10.9381 25.6531C10.8144 25.7767 10.7449 25.9442 10.7449 26.119V41.8633C10.7449 42.0381 10.8144 42.2057 10.9381 42.3292C11.0618 42.4527 11.2295 42.5221 11.4043 42.5221H13.6162ZM43.5388 35.2156C44.2539 35.5407 44.8647 36.0551 45.306 36.7016L30.5568 43.3684L30.5568 43.3684C30.1912 43.5339 29.7937 43.6174 29.3923 43.6128C28.991 43.6082 28.5955 43.5157 28.2338 43.3419L28.2337 43.3418L20.2103 39.4946L20.2101 39.4945C19.0302 38.9312 17.7539 38.5981 16.4498 38.5126V29.7641L21.4516 29.7636C23.2336 29.7636 24.9091 30.4566 26.1693 31.7151L26.3322 31.8777C26.3322 31.8777 26.3322 31.8778 26.3322 31.8778C26.3934 31.939 26.466 31.9876 26.546 32.0208C26.626 32.0541 26.7117 32.0712 26.7983 32.0713H26.7985H30.9436C31.8167 32.0713 32.5267 32.7807 32.5267 33.6521C32.5267 34.5234 31.8167 35.2323 30.9436 35.2323H21.9743C21.7995 35.2323 21.6317 35.3017 21.5081 35.4252C21.3844 35.5487 21.3149 35.7163 21.3149 35.8911C21.3149 36.0659 21.3844 36.2334 21.5081 36.357C21.6318 36.4805 21.7995 36.5498 21.9743 36.5498H30.9436C31.6282 36.5498 32.2899 36.3068 32.8112 35.8652L41.0794 34.8852L41.0794 34.8853L41.0854 34.8844C41.918 34.7515 42.7714 34.8668 43.5388 35.2156ZM12.0637 26.7778H13.616C14.0178 26.7783 14.403 26.9379 14.687 27.2216C14.971 27.5053 15.1306 27.8899 15.131 28.291V39.6913C15.1306 40.0924 14.971 40.477 14.687 40.7607C14.403 41.0444 14.0178 41.2041 13.616 41.2046H12.0637V26.7778ZM45.5355 12.07H23.121C22.4764 12.07 21.9521 12.5933 21.9521 13.2375V26.465C21.9521 27.1092 22.4764 27.6325 23.121 27.6325H45.5355C46.18 27.6325 46.7043 27.1092 46.7043 26.465V13.2375C46.7043 12.5933 46.18 12.07 45.5355 12.07ZM45.3855 13.3875V16.2012C44.6888 16.0684 44.0465 15.7296 43.5431 15.2269C43.0399 14.7243 42.7007 14.083 42.5677 13.3875H45.3855ZM23.271 13.3875H26.0887C25.9558 14.083 25.6166 14.7243 25.1133 15.2269C24.6099 15.7296 23.9677 16.0684 23.271 16.2012V13.3875ZM23.271 26.315V23.5013C23.9677 23.634 24.6099 23.9728 25.1133 24.4755C25.6166 24.9782 25.9558 25.6194 26.0887 26.315H23.271ZM27.4287 26.315C27.2834 25.2662 26.7993 24.292 26.0479 23.5416C25.2965 22.7912 24.3211 22.3077 23.271 22.1627V17.5397C24.3211 17.3947 25.2965 16.9112 26.0479 16.1608C26.7993 15.4105 27.2834 14.4363 27.4287 13.3875H41.2278C41.373 14.4363 41.8572 15.4105 42.6085 16.1608C43.3599 16.9112 44.3354 17.3947 45.3855 17.5397V22.1627C44.3354 22.3077 43.3599 22.7912 42.6085 23.5416C41.8572 24.292 41.373 25.2662 41.2278 26.315H27.4287ZM45.3855 26.315H42.5677C42.7007 25.6194 43.0399 24.9782 43.5431 24.4755C44.0465 23.9728 44.6888 23.634 45.3855 23.5013V26.315Z" fill="#FEAD06" stroke="#FEAD06" stroke-width="0.3"/>
<path d="M34.3283 16.5875C35.1708 16.5875 35.8565 17.2057 35.8565 17.9647C35.8565 18.0997 35.9102 18.2291 36.0057 18.3245C36.1013 18.4199 36.2308 18.4735 36.3659 18.4735C36.501 18.4735 36.6306 18.4199 36.7262 18.3245C36.8217 18.2291 36.8754 18.0997 36.8754 17.9647C36.8754 16.8083 35.9992 15.8407 34.8377 15.6184V15.2724C34.8377 15.1375 34.784 15.0081 34.6885 14.9127C34.5929 14.8173 34.4634 14.7637 34.3283 14.7637C34.1931 14.7637 34.0636 14.8173 33.968 14.9127C33.8725 15.0081 33.8188 15.1375 33.8188 15.2724V15.6184C32.6574 15.8407 31.7812 16.8083 31.7812 17.9647C31.7812 19.2854 32.9238 20.3599 34.3283 20.3599C35.1708 20.3599 35.8565 20.9781 35.8565 21.7376C35.8565 22.4967 35.1708 23.1148 34.3283 23.1148C33.4857 23.1148 32.8 22.4967 32.8 21.7376C32.8 21.6027 32.7463 21.4733 32.6508 21.3779C32.5553 21.2825 32.4257 21.2289 32.2906 21.2289C32.1555 21.2289 32.0259 21.2825 31.9304 21.3779C31.8348 21.4733 31.7812 21.6027 31.7812 21.7376C31.7812 22.894 32.6574 23.8616 33.8188 24.084V24.4299C33.8188 24.5649 33.8725 24.6943 33.968 24.7897C34.0636 24.8851 34.1931 24.9387 34.3283 24.9387C34.4634 24.9387 34.5929 24.8851 34.6885 24.7897C34.784 24.6943 34.8377 24.5649 34.8377 24.4299V24.084C35.9992 23.8616 36.8754 22.894 36.8754 21.7376C36.8754 20.4169 35.7327 19.3424 34.3283 19.3424C33.4857 19.3424 32.8 18.7243 32.8 17.9647C32.8 17.2057 33.4857 16.5875 34.3283 16.5875ZM41.4601 18.3249H39.9319C39.7968 18.3249 39.6672 18.3785 39.5717 18.4739C39.4761 18.5693 39.4225 18.6987 39.4225 18.8337C39.4225 18.9686 39.4761 19.098 39.5717 19.1934C39.6672 19.2888 39.7968 19.3424 39.9319 19.3424H41.4601C41.5952 19.3424 41.7248 19.2888 41.8204 19.1934C41.9159 19.098 41.9696 18.9686 41.9696 18.8337C41.9696 18.6987 41.9159 18.5693 41.8204 18.4739C41.7248 18.3785 41.5952 18.3249 41.4601 18.3249ZM41.4601 20.3599H39.9319C39.7968 20.3599 39.6672 20.4135 39.5717 20.5089C39.4761 20.6043 39.4225 20.7337 39.4225 20.8687C39.4225 21.0036 39.4761 21.133 39.5717 21.2284C39.6672 21.3238 39.7968 21.3774 39.9319 21.3774H41.4601C41.5952 21.3774 41.7248 21.3238 41.8204 21.2284C41.9159 21.133 41.9696 21.0036 41.9696 20.8687C41.9696 20.7337 41.9159 20.6043 41.8204 20.5089C41.7248 20.4135 41.5952 20.3599 41.4601 20.3599ZM28.7246 18.3249H27.1964C27.0613 18.3249 26.9317 18.3785 26.8362 18.4739C26.7406 18.5693 26.687 18.6987 26.687 18.8337C26.687 18.9686 26.7406 19.098 26.8362 19.1934C26.9317 19.2888 27.0613 19.3424 27.1964 19.3424H28.7246C28.8597 19.3424 28.9893 19.2888 29.0848 19.1934C29.1804 19.098 29.2341 18.9686 29.2341 18.8337C29.2341 18.6987 29.1804 18.5693 29.0848 18.4739C28.9893 18.3785 28.8597 18.3249 28.7246 18.3249ZM28.7246 20.3599H27.1964C27.0613 20.3599 26.9317 20.4135 26.8362 20.5089C26.7406 20.6043 26.687 20.7337 26.687 20.8687C26.687 21.0036 26.7406 21.133 26.8362 21.2284C26.9317 21.3238 27.0613 21.3774 27.1964 21.3774H28.7246C28.8597 21.3774 28.9893 21.3238 29.0848 21.2284C29.1804 21.133 29.2341 21.0036 29.2341 20.8687C29.2341 20.7337 29.1804 20.6043 29.0848 20.5089C28.9893 20.4135 28.8597 20.3599 28.7246 20.3599Z" fill="#FEAD06"/>
</g>
<defs>
<clipPath id="clip0_43_147">
<rect width="38" height="33" fill="white" transform="translate(10 12)"/>
</clipPath>
</defs>
</svg>
