<svg width="27" height="27" viewBox="0 0 27 27" fill="none" xmlns="http://www.w3.org/2000/svg">
<path d="M12.2352 24.1252H3.45833C2.77319 24.1252 2.11611 23.853 1.63164 23.3685C1.14717 22.8841 0.875 22.227 0.875 21.5418V6.04183C0.875 5.35669 1.14717 4.69961 1.63164 4.21514C2.11611 3.73067 2.77319 3.4585 3.45833 3.4585H18.9583C19.6435 3.4585 20.3006 3.73067 20.785 4.21514C21.2695 4.69961 21.5417 5.35669 21.5417 6.04183V11.2085" stroke="#FEAD06" stroke-width="1.5" stroke-linecap="round" stroke-linejoin="round"/>
<path d="M16.375 0.875V6.04167M6.04167 0.875V6.04167M0.875 11.2083H21.5417M15.0833 20.25C15.0833 21.6203 15.6277 22.9344 16.5966 23.9034C17.5656 24.8723 18.8797 25.4167 20.25 25.4167C21.6203 25.4167 22.9344 24.8723 23.9034 23.9034C24.8723 22.9344 25.4167 21.6203 25.4167 20.25C25.4167 18.8797 24.8723 17.5656 23.9034 16.5966C22.9344 15.6277 21.6203 15.0833 20.25 15.0833C18.8797 15.0833 17.5656 15.6277 16.5966 16.5966C15.6277 17.5656 15.0833 18.8797 15.0833 20.25Z" stroke="#FEAD06" stroke-width="1.5" stroke-linecap="round" stroke-linejoin="round"/>
<path d="M20.25 18.3071V20.2498L21.5417 21.5415" stroke="#FEAD06" stroke-width="1.5" stroke-linecap="round" stroke-linejoin="round"/>
</svg>
