<svg width="15" height="15" viewBox="0 0 15 15" fill="none" xmlns="http://www.w3.org/2000/svg">
<path d="M6.86333 13H2.33333C1.97971 13 1.64057 12.8595 1.39052 12.6095C1.14048 12.3594 1 12.0203 1 11.6666V3.66665C1 3.31302 1.14048 2.97389 1.39052 2.72384C1.64057 2.47379 1.97971 2.33331 2.33333 2.33331H10.3333C10.687 2.33331 11.0261 2.47379 11.2761 2.72384C11.5262 2.97389 11.6667 3.31302 11.6667 3.66665V6.33331" stroke="#BABABA" stroke-linecap="round" stroke-linejoin="round"/>
<path d="M9 1V3.66667M3.66667 1V3.66667M1 6.33333H11.6667M8.33333 11C8.33333 11.7072 8.61429 12.3855 9.11438 12.8856C9.61448 13.3857 10.2928 13.6667 11 13.6667C11.7072 13.6667 12.3855 13.3857 12.8856 12.8856C13.3857 12.3855 13.6667 11.7072 13.6667 11C13.6667 10.2928 13.3857 9.61448 12.8856 9.11438C12.3855 8.61429 11.7072 8.33333 11 8.33333C10.2928 8.33333 9.61448 8.61429 9.11438 9.11438C8.61429 9.61448 8.33333 10.2928 8.33333 11Z" stroke="#BABABA" stroke-linecap="round" stroke-linejoin="round"/>
<path d="M11 9.99731V11L11.6667 11.6666" stroke="#BABABA" stroke-linecap="round" stroke-linejoin="round"/>
</svg>
