<svg width="30" height="30" viewBox="0 0 30 30" fill="none" xmlns="http://www.w3.org/2000/svg">
<g clip-path="url(#clip0_38_323)">
<path d="M30 15C30 6.71573 23.2843 0 15 0C6.71573 0 0 6.71573 0 15C0 23.2843 6.71573 30 15 30C23.2843 30 30 23.2843 30 15Z" fill="#419FD9"/>
<path d="M30 15C30 6.71573 23.2843 0 15 0C6.71573 0 0 6.71573 0 15C0 23.2843 6.71573 30 15 30C23.2843 30 30 23.2843 30 15Z" fill="url(#paint0_linear_38_323)"/>
<path d="M6.74212 14.6693C11.1042 12.7289 14.0129 11.4497 15.4683 10.8315C19.6237 9.06685 20.4872 8.76029 21.05 8.7501C21.1738 8.74797 21.4505 8.77929 21.6298 8.92779C21.7812 9.05322 21.8228 9.22266 21.8427 9.34154C21.8627 9.46047 21.8875 9.73135 21.8678 9.94297C21.6426 12.3587 20.6683 18.2212 20.1725 20.9268C19.9628 22.0717 19.5498 22.4556 19.1499 22.4932C18.281 22.5748 17.6211 21.9068 16.7796 21.3435C15.4626 20.4622 14.7186 19.9134 13.4402 19.0533C11.9629 18.0593 12.9206 17.513 13.7626 16.6202C13.9829 16.3865 17.8114 12.8309 17.8856 12.5084C17.8948 12.468 17.9034 12.3177 17.8159 12.2383C17.7284 12.1589 17.5993 12.186 17.5061 12.2076C17.3741 12.2382 15.2702 13.658 11.1946 16.467C10.5974 16.8857 10.0565 17.0897 9.57187 17.079C9.03762 17.0672 8.00994 16.7706 7.24594 16.517C6.30887 16.206 5.56409 16.0416 5.62894 15.5134C5.66272 15.2383 6.03377 14.9569 6.74212 14.6693Z" fill="white"/>
</g>
<defs>
<linearGradient id="paint0_linear_38_323" x1="15" y1="0" x2="15" y2="29.7775" gradientUnits="userSpaceOnUse">
<stop stop-color="#2AABEE"/>
<stop offset="1" stop-color="#229ED9"/>
</linearGradient>
<clipPath id="clip0_38_323">
<rect width="30" height="30" fill="white"/>
</clipPath>
</defs>
</svg>
