<svg width="30" height="30" viewBox="0 0 30 30" fill="none" xmlns="http://www.w3.org/2000/svg">
<g clip-path="url(#clip0_38_327)">
<path d="M30 15C30 6.71573 23.2843 0 15 0C6.71573 0 0 6.71573 0 15C0 23.2843 6.71573 30 15 30C23.2843 30 30 23.2843 30 15Z" fill="#0DC143"/>
<path d="M21.7192 8.25719C20.1111 6.60175 17.8881 5.70312 15.6178 5.70312C10.7935 5.70312 6.91513 9.62881 6.96244 14.4058C6.96244 15.9193 7.38813 17.3856 8.09756 18.7099L6.86781 23.2031L11.4557 22.0207C12.7327 22.7301 14.1516 23.0612 15.5705 23.0612C20.3476 23.0612 24.2259 19.1356 24.2259 14.3585C24.2259 12.0409 23.3273 9.86531 21.7192 8.25719ZM15.6178 21.595C14.3408 21.595 13.0638 21.2639 11.9759 20.6017L11.6921 20.4599L8.94894 21.1693L9.65838 18.4734L9.46919 18.1896C7.38813 14.8315 8.38131 10.3856 11.7868 8.3045C15.1921 6.22339 19.5908 7.21663 21.6719 10.6221C23.7529 14.0274 22.7598 18.4261 19.3543 20.5072C18.2665 21.2166 16.9421 21.595 15.6178 21.595ZM19.78 16.345L19.2598 16.1085C19.2598 16.1085 18.5029 15.7774 18.03 15.5409C17.9827 15.5409 17.9354 15.4937 17.8881 15.4937C17.7462 15.4937 17.6516 15.5409 17.557 15.5883C17.557 15.5883 17.5098 15.6356 16.8476 16.3923C16.8003 16.4869 16.7057 16.5342 16.6111 16.5342H16.5638C16.5165 16.5342 16.4219 16.4869 16.3746 16.4396L16.1381 16.345C15.6178 16.1085 15.1449 15.8247 14.7665 15.4464C14.6719 15.3517 14.53 15.2572 14.4354 15.1626C14.1043 14.8315 13.7733 14.4531 13.5368 14.0274L13.4894 13.9329C13.4421 13.8856 13.4421 13.8383 13.3949 13.7437C13.3949 13.6491 13.3949 13.5545 13.4421 13.5072C13.4421 13.5072 13.6313 13.2707 13.7733 13.1288C13.8678 13.0342 13.9151 12.8923 14.0098 12.7978C14.1043 12.6558 14.1516 12.4666 14.1043 12.3248C14.057 12.0883 13.4894 10.8113 13.3476 10.5274C13.2529 10.3856 13.1584 10.3383 13.0165 10.2909H12.8746C12.78 10.2909 12.6381 10.2909 12.4962 10.2909C12.4016 10.2909 12.307 10.3383 12.2124 10.3383L12.1651 10.3856C12.0705 10.4329 11.9759 10.5274 11.8813 10.5747C11.7868 10.6693 11.7394 10.7639 11.6449 10.8585C11.3138 11.2842 11.1246 11.8045 11.1246 12.3248C11.1246 12.7031 11.2192 13.0815 11.3611 13.4126L11.4084 13.5545C11.8341 14.4531 12.4016 15.2572 13.1584 15.9666L13.3476 16.1558C13.4894 16.2978 13.6313 16.3923 13.7259 16.5342C14.7192 17.3856 15.8543 18.0004 17.1313 18.3315C17.2733 18.3788 17.4624 18.3788 17.6043 18.4261C17.7462 18.4261 17.9354 18.4261 18.0773 18.4261C18.3138 18.4261 18.5976 18.3315 18.7868 18.2369C18.9286 18.1423 19.0233 18.1423 19.1178 18.0478L19.2124 17.9531C19.307 17.8585 19.4016 17.8112 19.4962 17.7166C19.5908 17.6221 19.6854 17.5274 19.7327 17.4329C19.8273 17.2437 19.8746 17.0072 19.9219 16.7707C19.9219 16.6761 19.9219 16.5342 19.9219 16.4396C19.9219 16.4396 19.8746 16.3923 19.78 16.345Z" fill="white"/>
</g>
<defs>
<clipPath id="clip0_38_327">
<rect width="30" height="30" fill="white"/>
</clipPath>
</defs>
</svg>
